<mxfile host="app.diagrams.net" modified="2023-08-12T10:10:48.483Z" agent="Mozilla/5.0 (Windows NT 10.0; Win64; x64) AppleWebKit/537.36 (KHTML, like Gecko) Chrome/115.0.0.0 Safari/537.36" etag="LwJMAaGffmD7dHdxiWS9" version="21.6.2" type="github">
  <diagram name="第 1 页" id="Q8ekmVpNckbd8HOXxbpt">
    <mxGraphModel dx="1454" dy="740" grid="1" gridSize="10" guides="1" tooltips="1" connect="1" arrows="1" fold="1" page="1" pageScale="1" pageWidth="827" pageHeight="1169" math="0" shadow="0">
      <root>
        <mxCell id="0" />
        <mxCell id="1" parent="0" />
        <mxCell id="REkyW3odpnvt683TC7qx-2" value="" style="shape=image;verticalLabelPosition=bottom;labelBackgroundColor=default;verticalAlign=top;aspect=fixed;imageAspect=0;image=data:image/png,iVBORw0KGgoAAAANSUhEUgAAANIAAACjCAYAAAD/50AmAAAgAElEQVR4Aey9B1hVx7r/n5tzzu/cc+7/3iQnxfTEJCe2KL1jbzHGGHsFCypWFBB7V6wom73pVVCq9CLYAAtWVCyoWLCAiCDSq3o+/2fWFgQFRRMTTfZ+nnevNjNr5p35rmlvecPMzAwVPR8PxpqZM379YcY43WT6ii1MmDRFxcNf0I727dvH6/5744033kBFz8eD//fPt/jeMlwC0qff9eDNv/4/FQ9/QTtyd3d/3XEk6v/5GpEq/BuogPTrtpk/BJBatGiBlZWVip6DBzZzF+AWeQq/vYUsXuOC1WwbFf+eg3+ivX388cd1vfgfAkg6Ojqvfbf6exTgP//5D1U1DyR68J///B5ZeK3faWxsrALSa12Dr2DmBSjvP3hAWvZF4jMOE5txiJjLh4m5cYTYm0eJzTlG0u0zZJXnv4K5f7EsqYD0YnxTxWqCAzX37rH3wnH2nD6Mie9yWjuNoaW7KS19x9AyaBxfRU7g69hJDDmwjsTcU02k8vrdVgHp9auz3yXHZdWVXC26RXrBdc4XZnGr/O4T+RAgOp55jnaLhtLGqj/fLBxIS/fRtAwcy9cBY/nGeRRtfcwwjrFm4XFf9t06S35V8RPpvI43VEB6HWvtN8hzcUUpmXdzuHA3iwuFWURfOcTERAe6xc6n785l2KYFc7OioEFObhcXMMJlPmprTVFbMZIOi4fTfuVI2q8dSYeFQ1CbPYhxDgsIP7gD29QABibb4n15F5X3axqk8zpeqID0OtbaS8zz7aI7ZN+9jffBGLr5WfPvLWZ8FWJGy4iJfBE1gS+iJ/B5tBlfxJgx4aiCgqpSKTdiXpRdnI+262S0nCah5TABLbvxaK0bi9aasWitHoPWKhPiz6TUhfe5tJtpR1w5euciIv7r/FMB6RWqvfKqSooqSimsLKWwqozymioe/OfBb5JD0ZBLKsvpt2YqbecN5GtnE74MNuPzyAl8Fj2eT2PG80n0OD6JGsfHkWMl+ibGnJmpHtQ8uM/9B/e5VJCN3uYZ6HpPR9drGrruU9F1nYqu82R03SbT0XcWuzJP1JVHvNP3yh5mn/CmtKay7v7reKIC0itUaza+drRePZzPXUbxubsp85K8uVVSwL0H9yVAPe9XW4QXS9n3//NAaugiHUHi+vG0Kmuq+cHeQupFNFaN5rsVw/ly6zg+jVIC6OPosXwUKWgMH9ZSlCndExeRlHta6o2m7ZCjHzgL/YCZStpigb7vDPTDZqEfN5t1Z8O4XpbXgOPpOZnMSnRm6lEXKV8NHr5GFyogvUKVNX3LBtrMHsDn8uF8GGTKJ0Fj+SrIjPYBU1iwz/uJxv+srBdWlJJw6Rgz9jhhFGnNd1HT+S5mOiP2refEncsNogsg6XvNQMdtCjpOk9GRT6LllnF8EjEWCURRSiDVgSjSlA+jTPkoegwDD6wl424WnQKt0A+ehX7QQ0qYjX6YpRJcMdbszT0jAbv+ix88eEBY+l40t0zG4sTrK1rzpwfSwoUL+fDDD18J+udb/8tf/ufvvPm//82bb/83b76lpL+89Q/+51//99x5/KBFC955713+8c7/8te3/8lf3v6HRH//1//Hux+81yA9IRHyt//750P6B3/7338g3vvm203Rwzy+/d+I9N774H3+9tY/+dvb9eid/1FeP7z/r8feWcv3t9/7F3996x/8493nL2NtGr/38W9/+1vdhuxbb73FRx999EJ06tSrsSXwxvNKNlhYWNQxQCV39+vKnKn4+fz8TE1Nrd9h/27nKiCphHZf6w/jHwJIP/74I3v27FGRige/WRvYuXMnf//73+vA/4cAkrm5+e/Wlape/OfkwL179/jnP/+pAtKfs/pfXqnFvtmd0kI8DkZjvd0Z612uWCe5YZ3qhXWaN7PTfJBlRHO1LPflZeI3TFkFpN+Q2X+WV12+ncWKSHdm+2/E2GEyX3qa8mXAOL4MHkfLLWNpGTmBljETWX464In9qNeVRyogva419zvk+2rhLbZl7MM3YzcBl5O5VJTzRC6yC3JZH7eZ75YMkyQrWi0ZzL+dTPjWy5RW8lG0th1GR/epTNsjx+aoF96XdnGj7PVXw1AB6YmmoLohOHDv/n3SblzE62Q8rmfjcDm/nTlHfOgaOx+9WGuME+ZiddyLk4VXGjDswJVT9HKaifqGsaivNkFtxSjUbEejtmYU6ouGoz5/KC7xgaTfuIxPxk5GH9hI0NV9lFRXNEjndbtQAel1q7GXnN+i8hIijuxmc0oMU2LsaeM7kZZBZnwZPkESdv08ykwSdhVye59FmzEt1ZX0outSroS40u4rx9Fxn4q2y2S0HSeiLZuA9kYztDeMl0hn43iuFih7MhHePzOZRWlbOZx34bklPl4yK54reRWQnotdLz9w0pmjRKTvI+ziAcIvHuDy3ZtU37/38l8MFJaX4H9wOwYrxtBm8RC+cTLhi7BnCLzGmmObHsLd6lLyyopwPxmHnp8FukLo1Wcaup4PhV7Fud90TOLWkVP6SG1DgGnT6QhWp4VwoSjrNynny3iJCkgvg6u/IM2+a6bzzcohfOYxmk+9TLE54EVE5kH23EjjWnHuc3+1q+7VkFWcx7HcDBJvnmJXTppEZwqvPSGpfSr7Ep0dpqK5yQyNtaa0XzOaz7aN59Popwu8/rB3OdtzUtl34zSDI1c+EngNtEA/eCb6/hboh1uhHz+b+OxUyu9VNeDQ2ZtXmLhbxpyj3lwpvdXg2etyoQLSK1JT4ssshFO72k2l7ZyBfOI2ghZBo2kRZMpHAaZ84z+BhYc3c+j2ea6X3G4y1yIdIUCaejODQ7fOkXD9GKuOBNAndjFtw6bwVeREvoqayKiUjWy7foDM0kfLzydvXXqkNuEihF7N+XqrGZ8IQdeosY+kxSPH0CLSlBZRJrSINpGEYc1T3VGcjsUoyBKDbZYYhFlhEGGFwQ4b5THEEoNoK/IrihrNu//pXfSOWcCCND+yy+80GuZVvqkC0itSOwIAIWlJGCumo7ZmDF9uHMb7ASN5L9yE98NN+SDMlA9DTfkmdCJWhz3IKM6m8KEyXm0R7t2/h/i6p127gJaDGV+JpeYwM758qMgnlPkkhb4YMz6PMaNl7EQsT3hSUK1U6kvLvYy+rwX6m2eg7zMDfW8ltQw1k1QvhMR4iwhBpkqKNOGDKBNahk1Cx38hPTyW08NzDoYR1hjumoPBQzLcOQfDHTYYhlg2CSRRBr9LifywexkrTweTV9k44GrL+qodVUB6RWpEAOl7n7loO09BUz4JzU0T+HjraN4JH8k7ESP5V+Qo3o0cxXuRo/kg0kRqqH6XE+vUGUT8nMI8OqwaRft5g2k152e+9B3DZ1FKZb7a4ZlQ6Psk8hEZ756Lz5Xd0pAx7fYVDANmKcl/FoZbH9Fn4eP4UALRIyB9EGHKBxEmfOFiwpCR1mxob4/1gLX84LmArqHzpTwKQBnufkTPsu3gfzmZPruWsul85G82N/w1moAKSL8GF3+FNAQQBgQsoZfvXIy9ZqHjMo3P3EbxduBw3gofydsSoEbxr4hRvBsxWgLUoANrya1UGi+pqK5i99kjaDk/Ug9vtWQInwWNkYZeHz/UQ1Iq9dUq943l46jxjDus4E5VCam5FzEKscYo2AqjICuMAi3rqK3/JD4Ob9gjKYFkyidbxzBkxlzctBW4aMmx15Yxe+BaukTNQ18Aac8cOiXOp9Oeec80kiL4EHhlLxP2O3CqILNZnBVxau7fo+JelaTw2KxIv3IgFZDqMbS6upqKiorflUrKSpHt20Z3Tyu0FeZ87DuK/wscyluBwyQSwHonaAT/ChrO+8EjGJC0Usrvxdzr6HpNRdvVHG1nc7QdJ6GtmMRnPqP5KGgUHwaPbkghJny4zZwvwhbSKmIB/XYsZ/PJBAz8LR7RVgsMammzBS1DxvNhyCg+CBpZR+8HjaTbwpms6bwO3w52eKvZ4aq1CbnmRhZ0XUebrXPQ327FxH1uTDwg41Zx/jP5m5OXi/2REMbu2/TMsKK+SsvKOHD5FK7Ho0nNzmhWnF+7nktKSvjHP/5RJ2uXkpJCZWXlL6J6TfOFT3+RGsWLCq2OHDmSv/71r787vfmXv/Bff3mT/3rzTd74y389lUS42jxLcUS8h3GfHV+kryQR5y9/ffje2jQeOzaVF/GeN//rTf7yxkP6L+W1uCfSF2mLMr1ZL6+1eW7q+ObDvDT1/PH7f/nrX6X8P37/t7yur7cl3iuUBH8J3bx584UBVBvxdwHSsGHD6r4o9ZmiOn9+xTYVz345z7Kzs2vx8MJHFZBUin1/+o/aHwJIYniYlpamIhUPfrM2IJQD6/fkfwggLV269IW7U1VEFQdehAMCOCogvQjnVHGeygEhoXGtIIcNe/wxC1/P+Bg7xu/YyPjDDpgdlTPhmII150KfMLn81ERf4YcqIL3ClfO6Zu1YZjpW/hsZ774UHdkEvvAx5cugcbTcNl7pESNqAi2jJ6C4EMOdyj+GAX8VkF7X1vo75Ptc3nXcTsfhmB6L+/kErpY8kvWrzc6Fm5nMC3FQKgfOH0TrZUP4VjGaVm6mtNk4gjbLh9LDfQaL9nsx/bALrhnx5DzmCKA2rdfpqALS61Rbv2FeK6oq2X8pjQ0Hg1l9IpjVp0IwP+CIfrQ12nFKaXCLVHdOF15tkKuYMwfo6jgdDbtxqK82RX3VaNRWj0bddjQai4ajsWCo5Anj2u1s/K8kMXTfOqJuHKak5vVWDlQBqUEzUF3cLLiNT1IEdju3MDLClm/9zPhyW+PKgcIjhsVxd84V3ZAYJ8R9Qs4mK5UDXYVy4CS0HSaivckMbbvxaG8cj47MjJLKsrrwAZl7mXfSl5N3rzy3msmrVFsqIL1CtSEkwEMOJOB1fDueZxPwOp3A5bs5kizab5HN7Lt52CdsRW+FKW2WDZXsNXwePoHPosya9oYRa47DhWjJtcz1otusORSI3hYLdH3rKQd6TkXXdzqGATOZsktOeT2vFwJ8q48HsuZUiCQV/1uU82W8QwWkl8HVF0xTCK/qLxzNVysG86mPCZ96mzInxRvfC7sJu3SAa0XPrxxYUVNFxp0sdl0/QdjVFLZdOyDR8YLLTwynki+eoKN8Cpr2ZmisG8N3diZ8GjpO6UomepzSkH8j3jD67VvF7ltpRF88yE/hS5QG/ANnoh80E/0Q4RnDQjLk33nHfI7kZTwhnCrUR0btWMvCVF8ulz5plOUF2fmbRlMB6Tdld9MvE8vF1+/mor7ChLY2g/jIcwQtgk1oEWzKR4GmfBMwgcVHt5CQdZzM4qY1UcUXXni1SLh0lO3XjxJ4KRmbFE86R8+lVZh5nXKg6UF7fDMTuVjySCZsT+aJBsqBwnbDN1vNJMXApykHfhJtxqwTm1lyJADDYEsMQi0xCLfCIMoag4SHyoGhlnSLm9+krynfkzvovX0hy08HvpZmvlRAarpt/6ZPyqsrcTkUJekyqa0ZyxcbhYT4KEk5sFZBsIVQDgybyJxjPpwouEL+Y0vHZVUVpFxKI+7kflqtG0lLYY8u3Kyelz/h6W+CpBgoKQfGTGTxma3kPUwn8dpJ9P0aKgfq+cygZdgEPopS+mRqTDnw6xBzjDwX0dd+Ob3c5mIUNbtR5cBu4fOaBJJgtlfGDvolrmB9ehg5FU/6x/1NK+Q5X6YC0nMy7GUFv1NeTEe3mWg5T1YqB9pPpIX/qCeUA99/qBzYefcCyRRWrTdB0aOdyrqImu0o2s8fTKt5A/jS7xnKgVHj6LJnAUHX9ksT/cTraY0qBxr4z+TT8LFNKgd+6WiCyeC5bGgvw3LYWvo7LaJH4IInlAO7JS5+KpAEb70ydvJz4ircLiZQ9Rr5tVUB6WUh4znTFTYfhgavYEjwCrptno2O6zQ+dRvFO8FNKweOPSLjWpnSBkRhWTH+RxPQcpmElmwCmnbjabV0CJ+GPkU5UHgCjJqIRaqXZOgx4Vpq48qBAZZIyoGNatma8qX3eCaMW4z7Q+XATToyLEespXvIfPSEqnriHLomLaJP8rJnAkkMTT3PJ2B92IOTBQ3t7jXFUhFHuCi9W1n6u2nmqoBUr3Zu377NjRs3fje6fv06V69fY2GEC/p2E1FfO4b3nAfyv+4/838P6S33AbztMZC3PQbwrudATLbbSvndcXI/GrJxqNuNQX2dKeprlfSRYjAtPAfzgeeQhuQ1lA+8x/KFrzVf+1owOGIZa3f6ouM2SUmuk9BxeUjOk9ARiobew3nfazDveQyqo3c9BtFzyjSW6S/Fse1yHL5bzga1laxuv4LJvRbR2m06+sEzMInZyPiEtYgyPovHp9LPYLNdwbQdsmeGFWldu36dyCN7WLvbj5RzJ5oV51l5eN7nR48ebSBrd+zYMbKysl6YJGD+EkdjL6rYV18f6UWFVjt37tyAGfWFEFXnv1xHR8XD5vNQ0thVAan5DFM1LhWvGmsDKiCplPpUvfqv0Ab+MECytbV94fHtLxkbq+K++LzideddfHx83UfoDwMkZ2fnessQqlMVB14+B44fP64C0stn85/vDfcf3OfMzcvMj3NjoP9iBmxbyoCY5QzYv4ZBKWsYnLKWpWf8JScAfwTuqID0R6jFV6wMCacPSoqBP8ss6SAbyxd+Y/hCKAaGjqPl5jF8GT1BosCr+yirJwT7ihXjubLTLCAtWRTBHJtQHOx3kpNTKBmLFxtp4mdhYVHXpb0qy9+qod1ztYFmBRY9TGpOhuQYYG3aNsklTE7ZIzcxtYkcuXQG8822tF86jHYLBtN6+VBaOYymteNo2q4ZRvtlw/jR3YpNR0MwPbARxfkY7lS9/pq2zQJS9y4KLC03M3TIOmZbB7Ji2Q5sV+5h3apEjAwGqoBU24r+QEfhsynubAoLk72Zc8ib2ce8GZG0AbXIGWjEzUJ7uxXmR524UNzQBtzmo9vp6DhNUg7UWGOKuq2J5EFQUg5cPJyOK8ay/2wquYV3CL9+kL6JK9h588QTLmdeN1Y2C0jfd3Mn5cA5YmMPERQo6ASBASfY4nOUHt2HqoD0utX6U/J7PjsT+1g/5kU581PoYsmtzZehZnwRqfQcKLwFCvo0SngOHM/M4x5cLFZKoYtRiktqDDoewoTzZLSdJqEtn6T0HrjJDB17M3p5WNa9XYQPuXaAmalKLx+1o5y6AK/RSbOA9EN3T27nKl2Q1Jbt/v37VFRUMWXKVBWQapnyC4/F5aW47QyRVMQ3HA/F7kgowhGz8Cv7W/zO51xlYZgTOitMabtiGP92NuHzCDOlw7OYcXwSMw7hFOBjSa9J6RDgm1hzPC/vlBYNzuVfwybJQ1IO1PObgZ7PdPS8pqHnPQ29rTPovG02S1J8GxRFgGfJYT9WpAVypaRpFZMGkV7Bi6cCqabmPmHbztCzszO3c0sazb5qjtQoW17oZnbBbTQXjOCr5YP4ZIspn/iYMvugJ/LT0fic3cGN4rznUukWjbS0qpwTty6x7eI+vC7swP1igkRH8jMofczWQvipZIwUk9Gyn4DmhrG0k42pUw78OHpsk8qBP+1fxYG8c/ie2Umf0IWPlAOF18Bts9AXioLhlvRLXEl6odLvbX0GCeXA/jFLWXTcr4EDtvphXvXzpwKpoqKG4UP9WWe7g+Kixg1cqID061SxcI+SeuMC7ZePou28wbTwHsEHIUrlwA+FcmDgBBYf20Lw5X3PVA68W1FC0JlEtl5MxDk9lknJcvQirfh3+CRJObBl1ETGHJLhcml7A+XAkHPJj5QDXaei5TaZf/sLfaaGXgMlx2f1PAd+FjMRmzR/pu9zk5yaSV4DI60xiBHKgbOVSoLhlgzeadsks3xPJtAzfgG2Z0NeS+XAJoEkeqO0kzcZPjyAsrKqJr+EKiA12Tae60FeaRG2e7aivtEMtbVj+HLTcN4LHcW74aMfeg80oUWYCd+ETWL+cV+pB8h7zJ1lXsldYk/txz0pnG/Xj+DLoPF8EfHQK7pQCoyu9YyunOe0jJnI2nOh3K4slPIaemGfUjlQ8h5ogb6PsN8wna/DJtS532xMOfDfAZPpJl/MwFXL6e08D6NomyeVAxNsGJzQNJBEBtwvJPBT4ko2nYt67dxwNgmkoqIK5ljGYG4WQnl5dZONQgWkJlnzXA8u3cnG2M0CTWfzOuXA9wJHNKkc2H3PIiJvHK7TERIOt/acO4qa7WjaLxxK68WD+WKzKZ/GPMVzYNQ4uiUuIjr7iPShDM3Yj2Hgk54DdQMs+CRM2SvVB1Kt58CWDiaY/7QIOzUZlqPWMMhuCb22PqkcODhl3TN54nY+nsHJa9iamUTlvabb3TMT+o0DNAmk/PwyfujmzoXzOdy//6DJbKmA1CRrnuvBjaLbTIzayLiIDZL3QG2XqZJy4NvbRjTqOVBo205JdeZSidLgyM3CPGR7g9FyMUfLQakc2HrlMGlhQJrfNOY5MEqsvk1mTtpWaeXN/3xio8qBBgGzJOXAjx7zZVvrObCV60Qsh6zEQ0uBq6YcoRw4a8waCUx6O+ZgnDiPnslLMTm86Zk8EfM6xdloFqX6Nks5UIQXVFhZSk7Znd9NObBpIOWV0aenR5NDulqOqIBUy4lffpQWB6orcDkWjYHnDIaHrOKjsDESkN4KN0HQ2+GmvBNhyr/CR0t+ZIXdBhFv99Xj0rBM12causKElvtUdNym8IW/WGVT2mwQc5ta+kgy0zUb9dh16IQvZeouJxbv9cU41FpJ26wxDnlIwdYYB1jTO3mptGpX5xRa8mVrisnUxbjp2RPc3gF/NTk+DwE1e+AGOrkvpnfcUswOu7IqPbhZTLpTfBebI17YnYtoNLwob/X9e5wpvCbZ1BNWlbzOJrDo0Gb23DzFybuZXC+9/Zv2aE8Fktg/Epl+2k8FpKdx5/mfSWCqqqCTnyVi0UAtYSb/FzaGtyNm8EHkbD6Oms2HUTN5N8Kcd8LHMPO4O1kleQSeS1Sujm21QN9X6R3dwHsGBp7T+SxU6dBZgEhYFlLbPBENH0t6+G1kmsdmFq3wYNys5fRdZklv3zl0DJ+NcZi1kkKt6bjNmp7blFaEhBNpsQT+YdQYWkQqPb4vGrSU6G/tifvGnuhW9oS1tSeggwxvTTnresgwWbyKfrtXEH7jYLMZsizVn/VpoQ3an+BN+b0qaZk85fY5WgSZ8O9Yc4lahZvT2ncC30RM5POIcYxMWs/O7BNPmC1rdgaeM+BTgdS7iwpIz8nPXxy85t49kjKO8727NXfLS9BJsOStsHF8EO9E9+Qohu+Pp0dSOC3jHHk7fBat4qbwffJSvt+xFIMQSwxq5zjCM7rfLAw3z0TPZQqfhY/l68DxzB+2il1GdhzSsyNW1w4/nXUo9GyxN7DFR3cda4avopufDUaiZ3oIpo6h1vQOXSDNx4RlVo2EWVLPJnrLVvbjWNt9GXta25PcVsaeVvbs+Lc9sf9WAspPwwHbPhux8HWSnDY3l0GL921myb7N5FcUSY6khVf2W+UFhF5L4e1tw6U5W6/guY0mdynnGv3il/FRqCluF+N/E0MsTwdSZ7cGX4TGcv20Hkl8QcTqn6B79+5LaYl7gur/fm1V89dZ1k6M9Tt6WHDg/HEEqFbs9eOLMDPeiV7LNzs28228Ny2i1kkgejtsLO+EjZQEQA3iZ2MYbo3hNisMhXf0QCuMAyzpuGUWHb1mYhRpTUTn9Tho2aJuO4n3Q02UPUqUKR8KihxDW5dxmJnOYenQtRj5W2MUaoXRNms6hc5mfPzGuoUN0+RNfB0+AfUF41jSZRXR7WSkdnAgXUvOKS05R9Uc2NtOxo5v7YlsZc+mH+0wj3F8rga9JtSDT5f24y3vwfxvwFD+J3gI/wwZTOvQyQQc21G/+TR5PuaAPRqRMwi7cqDJML/Wg6cDqdMvA9KFC7cwMlhNl44bmDFtK1VV9xoIvNYWQgWkWk4gTZo7BlpRUlEm8aqqphqjXXN5K2wUb4WZ8FbYaOn87bCRCBJAEosA7eNnYhg//xGQgq0wDrKko/8suttaEKO9AXPDqbRyHMeH4WORVt/qzZkEkD6OGEtbx3GMGWbJysHrMRKADLGmb+Risopu1wFJzE/mm6xhrs4qfNtuJLmdjPNdncka4kWOia90vNjVmVQ1Gbva2mP/41qGpaxHSMM09ydMQAvrtcLWeEFZEQXlRZRVV0hgFAK0zfmJVb9JR51Yey6sOcF/UZiXC6Tzt+ndwxkH+TZ69ppHj24b+b63J/36eDPwBx8G9duM5Yxw2rbpWCdm9GsYP3mte6SqMowDrKSJcm3vbbxHAGk4b4WN4K2wkRK9HT4SQe8IihiJ9o75TNy/VQKSaPyCjIOs6KyYSYTWBhI2xdJn20I+ixhXt+BQu/DwYaRY2h4rbbx+FTSOHnOnYa25kIX91yBW7H4MX1L3AaypqsFlmC9zdW3Rt5mAXedlHGov48oPbuROCeDO4kgKlseQNzeca0N8OPKdDMfOKxm+ZekTI5Fntdza8tc/PitO/eci3rSIjXzmOgKnjLj6j3718yaBlJdXRueOzoSG7qW6uqbJFz9taJdxIY9hP/tSVFRKdnY+N24UkHWjkCtX8jlzOot1a8KYMWMz33yjpwISSA0tv7QQY+9ZVN17xHOf0wm0j53GW+EjJPBIIIoYwTsSKYH0ZcwUOiasfNgjWUq9STc/a0J01hO1PIy7OXe5WXaHrokLHwFJWGCNGlNn1lgsk38aOZ42web8tHIuq9RXs6nvWoa5LaMsv5RjI/xx6ueB+zwfrpy6xrmbV9k5cgsp7R0439GJrNG+5C+O5q5jIoXu+8iZG8nZ3l6cXLGLW8V3mmxDL/NBbnEBkw85sej01pf5GpoEUnFxOQvmBND/Bw9JsqGpXDwLSCMGP1kAYVlUzJny8gq5kXWHfv1+VgEJKK0sZ+v+WH50s2kAJDFv6pW4tAFwlCAawb8iR0r0XlExaGUAACAASURBVIQJX0WZYxA7W+pFuntYs6nHGjboryHvej4PHu4FLkzbSpu4aUrwPJSfE0Kon0SM45OwcXy6bTxfhI7nu6Cp9JLbMM50Lo6dN5I0zB/XMQqunbxBfs4dxAZw+d0y9puEkCjmSBoOnO/iTJbpFvKXxnDXOYl823hy5kRTnK40hNlYG7Kf7YXlkBUsHeHCmZTL1NTcayzYC90rrq7C6/JF1Let4OOtY+mc5EmflJSHdIT+h4+zJP08lffvSTbXl/or0EmwIvcFTC43CSQxnr2YcRNjAzlTJoZyJ7+s0a65KSBduXIHi6nhjBji/UwmqOZIShbdLStmebgbI72XUF2vRxJPHdKj6RA3g3fDhNhQ4yTUGvQTbDAMsGTg5FlEd9jIgLVzqaiqqquD62V5/LhnhQSaT8LH86mgbeP4LGgsn/mZ8oWXKV94mPCV5xjaeE+gn99Cco9kcSc1mxsZ2XWAFAlmJl0m/idftreyJ6m1PYfUHDht4MTlHz24aR5I7vQg8lYm8KC6cXB4W0cxSW8JQ9rPYIbGGuwGbcFrTjQZqU8KttYV4BknYjhnd/4co44eY+C+PUxL3oHr8WRG793I4BRHDt65w8GCAlLuFLDrZg72x4/w8+5oOtlO5EOrXkReOfhC+09NAknk9969B+zff4UhA52wnh7BfKtYFs3ZzjybOObaxElHbc1+db1JfQ3Z8+dvY2UVS+rRa88oOqiApGRRQVkx80McMdm87Ikd+uyyOwxIWMn7AaN4P2S0kraZ1DsfzcehY2kfNo1uW21YbrwE259WMjnGXvra1q+EQ7cv0C9qKZ/7mEpiRF94mvCly2i+lI3kqzVD+XrJQDQXD2e6ry2Hcy/Uj9rgPGl9MkGdXQlrY0/ct/bSKl1SG3sOqjlw0siR9M4uXLOObRDnXvU9Lu28SMzsOKwMNjFBbSmjOtiwUGMDqzQVrNR3xGlkAGf2XG70w90gsccubpaVsPDsFRafPEnI9evsunWTk3m3uFNWit/xeHqHzmPThSgpXQG46nv3SMk8z9/nDOQvEwx412s9BRXlz/1ekY2nAqk2nwdTMtgVf4G4qLPERJ4lOiqdmOhzxMWco3+/0U8AKfdWCe5uh7GYHtmsTKmApOS0cOmy78JJevvYNFgqFhUemLmPnhEL+MxzNC18RtLCdxQt/EYrj+LcdxQf+o6mZeB4em+Zi5/2eoYtX8DJnEvcf9BQxEtc77t2msGbF/D1qsF8vWIwrZcM5me5NY67g4g8nkRC6j7SMzNqm0Cjx9BpkXjoOeKv5kBoOxkRreyJ+dae+G/t2d3Knr2tZZyZHFkXt6KgnOS58UQNC0ChrcBSx47JGqsY22E+tlp2yLUUyDTlrNeS4z0ykANex8i9/KQ6e12C9U6yCwuwSt6B9+VrnL17l/KaR3NMESy7IJf1iVvpGWiDyd5NWO13Z2NyID8qZvHu1K74HYxn1dFDWJxK5+5T1gTqvbLBabOAVBtDzGuqq+/V7QsJGbwZM2Y8AaSTx7OZYR5OwJbU2qhPPaqApGSP+EoWlBdjtHmWtOwrrjNyruN5NA6P0/EEnE+in/dcPl47iI/sh/KRwzAlyYYpr+2H8rnbKDq5z8Sp0zrmzN7YJN/F0P1Axkn8D22XKCglnr1njyHEc5r7852wDZm2Ag8tOb6acgLUHAj5TkZ4G3uivlVuyh6dGMn96nvkp+dyYF4C/t/J2NregRVacqx1ZEzXXoeF+ipkmvZ4acjx1JDjpinHSUuOZx9voubFc2HP5SazJHhUVVODTdol3M6cIr+ivMmw1/NvEXomiYUpPnzvaUlfewsGrp+J34EYaVUy+24BrXftIaeyssk0mnrwXEBqLJHG5kgpB64ydWIo+fmNKwM+no4KSI84InwtbdgXhGzvNjySIlgc4cbmY/Fczs+W5k07zx5m+pZ16Kw05fO5/fhs3k8PqR+fzf2RLxb157vlIxk70prdP7g/SvglnDmZBbBKXYZMwwFnLQUe2go2a8rZqu5AUHuZ1EvtGLCVNJ9j7J0ezbY29oS1siegjYy52nJm68qZqbORVVr2uKs7sEWA7DsZW9rL2NzBAS91B1z1nAgwDeZEzFmyiwo5f/uRN3YBItG7rr5wjfUXsyioqnnmCEjEuV10h7gT+wg5mMCRsycbcKbNju3kVDSue9cg4GMXLwdI+68yc1rjAoePvV+6VAHpEVdEw8gpyGNRjDs2fhtxTQrjTmnRowDA+euX8dsTiZn3Coa5LmBlqCvro3zqyC7OD6fAAFL0Hbm5L7PBAkGDhH7hxboxHsxTs2OVmgPr1eXINERPosBNW4G3llwCla++M6Fd3IlqJyO+jT0xbeyRqTkwV0eOja4CK10ZMm05m9vLCGhtT/BDCmytBJxfewdcNeRsmOjHwpRkVp9IrQNL5f37yC9lMu34WW5VlEu9yi8sEm12RL9aQLKYogLSi1aq2B64mHONExfPUFX9aMXt8fSO5mTgdTKBw1nnHn9EZVEFh5YlkDYmmJrSphUzn4j4HDfWTnbGQtuWuRqbWKLmwKoODqxTc2CjhhyFkADXkuPV3kEa6u3p4MB+LTm7NQWIFBLN0VGwUEuOk4Yc/7YyQlvZE9XanmgxNGxjT0Rre0LayPDQlGM+1oWv/L3okbiLI3fyuVtZgdvlS/RNTOZ0fh41zZR2eFbx2u6Me4WAtO8qMyargPSsSvulz8USeeS5FGyT/cnMe+RPVqQrwFhaUMzBIS4URZ7hQWXDyfcvfbeInxCciGWfVZhrLGWW5joJUIvVZKzo4MBadQec1B0IaCcjSiw8aMpJ7eZMlJ6C+TpKEoBaoynHXcyt2siIaStjt7aCfR2dOdDNlb2dXIgTiw/dnei9zJOvt7jTLjQA0/1JeJ47zYxjR4i+fJF7jy2mvEjZxJCvtLSUNgJIla/K0G5fprTY0NwCqYZ2zeXUk+HSsi9hu2sLXoefFIGpqakhOTaJo72dub3jIvcrfn0wBTlFMbXnIsaqz8VcYxkzNddho7GRxer2bFJzYGt7GWGtZezRkHP0B3fW6SiY95AEkDbpKPDu4EBIa3vi2snY38WZU6N8uTgjmIsWIRzs58X8YU7829eTrze70NLbmfZhgcw5vJ/iF5jLPMlB5R2xwbzjyEFaxW4jp96CRVV1Nadys7lV+nQjli9njiSANCm8qTw/cV8FpCdY0uwb4kuaeC2NlfsDuFXy5FLxfx78h0iLbRz52ZeKrMK6+UWzX9CMgKFesSybsIkp3RZi8p01E9UWYaG5mlWa9mxWdyCwnYxY0dsYOWKjo0AM6QSIxLEWSGJ+FNFGxm59R04M9eHanHDyNu3k9NRQFpg48+1WD77xdeVrX3e+37OL6ucQgG1GEaiormaEix1d44K4Xalc+RPbEYcz0hkXF0RMZtP7aSL9lwKkA/symTwuhMLChrbwmiqQCkhNcaZ5909mXWTZDl+8T+5qMkL6cF8KTmQhNkRfxq+qsopg1yjGdLJgULuJjO4wCxuNVbhoyvHr4EBQWxm+Heyx1pXXgcnSWMYGPTnuGnJ8hHZtWxlhbWXs1FOQOsiHq/Oj2GcdjrmlJ9/6e/JvPze+2eJFr+Qk7tST1misPHfKS7lcXMCFkgIultwlv/LpixFl1dVoe2xg26V0KmpqpKHxscwMxvm50C8mgMTchhZlH3/nSwHSwYPXGD7UG/+tex9/X6PXKiA1ypZm36yuqWbXzfMsS9/ZZJyo4X7sm7ed0uyGK4BNRnjBBxF+cYztOZ3hupMwbTeLleqb8NKU46Fmj5X2eix17ZnfyYl1g7cwa6wDa40UyqVzDbk0xPNrKyOotUxa5dvfww2/OaGM3hpH7+ht9IoMpldUCJMP7X/qvEj00j5pKZgfiGHcsQQmHtuBV8YJMu/mcbe68T2i0uoqWrqupriyQtpmuFGQz6TQzRhFbsE7/QQFpU/vFF4KkK5m5rJ8cSgmw/25W/B0kQtR6KFDH5k9flyNQmwA5+eVcCe/lOLiCmloIuIIqv+r70P2dVajqF+m5zlPyb/GsrNN90gngk8S/703hemP9mGeJ/3nCZt/+w6bZf4M0ZrAVM35KLTkuGhsYqr2Kpb0c8V9/jbu37tPzKa9bOzkioOOAmdtBW6aCjzVlb3T1rZKDdv0tcnP82oprJjvzDuRSFzWRYTuUkFpCb5HkjCN9kNxPlUCU+ljsowCSK3WLeBK4R1OZ19jzDYv9KP8GRrtT+rNZ8v+vRQgidKkpd2kexcnhgzwpbS0CmFssjEqKa1k4MBBddIRjwMpJeUSutqr6NppA7OtAiktrZTMgwkTYbXpCYXBjh071aXxpwTS7fMsOxHUZKOLnxHKwQXxL71Hqp+B06lnWWG6AZm+E3IjByz7rZK0fmvD+C1PwFbfmfXacux1FSh0FLhoKXDXVOCt5sCWdjKOr24IJPEBFZLsNeU1Sqqooaaihup6dKewkFlH4om/2VAiIv1aJqv2xDLi0A5sz51QSn0Lye/797hbUcbP8tW0C3Sih8cG9LaH0C9qK2m3G66G1ub98eNLA5Io8OXLuQwa4EBXPSe6GTjTo5MrnYxcJOpi5EJnIxeMjV149z2tOhA8DqSDKVcZ2N8dmUMQXbvOQVdrNUYGzlLc7sau9OjsxpSJwXz6Sbu6NFRAerya4YZ5CFU37v4qm5ZPpt74HanRP3ggNfyreXlM9ttMQMr+usCRnkks6eTMMnU5a7TkbNBRINNRSHJ4wqyXl5oDR9Y1nB7cr7lP9tEsvNTkEuDkuo7I9Byx03dig4EzCzs6c3j3GaYfiWf7Y0CS8vOf/5BVkI/LoSSGJ0cx+OAOBqdsZ0hyBBN3baPvukUYBLsRcOooheWNazzUFaDeyUsDkniHkMUTPUhxUSW3c4vJuVlEbm4Jt2+XcudOGUVFlZSUVDFw4OA6EDwOpEMHrzHVbBuVldWUlFRQXFwpkRA/upp5m9W2gcyY4cvHn7SuS+NPCaTc8yxNfbJHEqt2Kf39SNSQU5Z594khcb228FJPK6urOZiRwZSIR2rfpcXlLOznymwNBxapyVkhAKWpwE7HURJg9ejrw5HANClfRTeKOGy3j+iOrsR2ccO3jQwndTl2Yi9KR8FyLQXLtBQs1pSz3NCZSf1d2b+vcaFbsccmFCfLaqoRQzyJaqopF9eVFZRUV0nS9wJ4zf29VCDVZkL5ZfoPDx48InGvNqNPW2w4fPAa0x5bSq+NK4BaXFxGQUEphobGf2ogHci9wJLjobUsp6ayhsy482T182G3oTNFZ3N5cK95tg4KKyvZmZXLmvRsvDKyKK/+5RZPRZ1lFxVhFv1IGlzcm9JnGRM1bZmpLWOOppwl6nJWqcvZoK0gyX4/xbklZASksbO/L0cnB3FgpB+h6g54fCdDoSnHTtcRW11HlmjImachx1JLjoW2nAk6diz/yYvTuy7W8eRlnvwmQHpWAZoC0vFjWYwZGcA082cbFvwzLzak511j0T4/5u/2JSchgysDt5L1kx/Jfby4tDOV4ov5PLjXUJWisTopKy8n+Xo+C9KykR8/zcWCYkLOnGfxqUxWXijiwXN8oRtLP7e0tAGQRJgbl28yq98axqkvY5qWHVZaDiwQYNKU49bDg6gBfhw2CeTKkhgyl8dy2HSrEkjtHSQxpFogLVSXM1tDznRtOZN0NjJSYwkjNRcQ6ZlMeWnTYlaN5fNF7r3SQDpy5AbLlu/i8qW8Z5btzwIk8RXPL6/kbF4BN4qLpcn77pwLzPV0I/EnR1LHBJLqkkjliZsUpuVQUa5c6XwmA4EjN3PwPnOB80XlZJeUSn6Z7pSVc+ZuMWsPnmR1RimV95s/3Kn/TpHvnJISJkVHcO/BfYkq79UQm5XOwNFz6a85HRO1BUzSXMMsbXsWasol4daYHu5cnB9Fvsc+stbv4MiYrYQJdYtGgDRLS465jj2mmqsYpG5D3/ZTmf29HanR6fWz8lLOX1kgZV4pYP3aZBYtSKgbAj6NA38GIO3IvIHi1AVkx05jfzAV2YHDOBw5jlfwXoLMNiOz3sma0IvIj98ko6jsaex64llq9k1Cz54js6j4iZ5HyLJdyi9g6d6jyC7eoaSm6SGiMNVVVFXB6cIctl49zppziVifjMXqRAxTj0XQK8GLmalRElkci2DIPl+MvdfStesEfmpnzgi1OdJQz1rTHrsODkR2c+O8TQQFrslkr03gsMkWwtQdngDS/Ie9kZn2BoZpLKK/mgW92pnxU7spzBvgyOG4JwV7n2DCL7jxygIpafclLKdHkrC9eQz4owMp6vptVuw9RNj5y5zIzefUrTxO3ryFZ9J+1s10Jm1KBGkXCki9W0NSThHy4+lsyaqksKr6CWA83l6EeEzYufNsPZPeZFih3nE+N5d5B46z6dRpos8dxzkljhU7g1iSEMCSHQEs3uHPwoQtzInbzOQoNwbEONI90QPD3c4Y7HJGf5eTRHo7HdHboUAvQY5uvAyd7fbobFxK164T6dduEiPV5mCuYcsK9U34ays4PMyPm2vjubo0lpRhm9nWQYZHh4dDOx1HVuo4YqMhZ5KWHSM0FjNQ3Yq+7afQo80YjL8ezMh2s4mR7af6JQju1vLylQVSbPQ5FsyJQ7iXac7vjwoksUATlVPB5oxsEjOvU1DWUAM0LeoYUdP8yNt9SWKTGEKVVlVzODuXffmVeJ0+R2jqcSqaUJ8W4Q/m5BJ84RIZBcpVvcKqcpJuZSA7t4cNafGs3x3Cuoc0bIucPn4OjNy6iR88ltHJcR5GjnMlMnScgyADRxv0FTbou81HL3g1ersc0d3piI6gHQq0E+RoJzigFS9Dc/smNOI2oha9CfUVC+jURdkzjVdfyjJNGR5qDsR3dyN95jbOzdpG0o8eBLeT4d7BQdLOXaOtYKGmgnm93IjzPsSusCMkhBxgyXR7+miYovVpH0a3nonDMH8Ov8Qh3qsLpKh0li1qnmla0YL+iEASy7TROeWE3Sjiwt0SKhsxVXXd/yRpNnFU5DccygmA1Ny/z+5rWcyO2U7oyTRKKx9NusWOvxDKTL54BuvoAGZG+OKYGIHjwRjWnohjQvJmugWsoJPPIoxl1hjVI0OZNYay2Rg4KElfPht9uQ16itnoygVZo+NghY7cGm2fxWjtUEikuUOORoIDGtvtJfCox25EPXYD6nF2qMVu4rswOzQmW9BVZyzjOiyS1NGFrlKwriP7fvLiyCg/dnRxYWtbGY4acjYaObNz0372+p3gQPQZaVFBlFts2J49eYGIgHj8XLfhaObNUi0F9qbBnNzbcJO2OR/p5oR5ZYEUE5XO0oUJzSmDFOaPCKTtOUWEXC/kVmnFEwZMahlzzf8kJ2fHUf4YkGqfi4aVcDmTRTFxBJ85x95Llwg6nIjn3mhckiKY6LeJrnaWdFpvQccNMzF2sMLIawGGnvMxlFlisGkWBpss0d80q4707C3Rs7dCV5DMCh1BDlZoO1ih9ZA05VZousxBM2AFmjEbJdKIsUOi6PVoRK2n505nFp/cjvz8flwyDuJy8TDOiTuwtlzHNKMVLNOSI9NS4CPmSloKtndyJkgYRjF0IWbudlJ8UilpwkxcbfkzM24QbBOBrZaCBXqOBK3eU/voVz2+ukCKTGfpgj82kCora8i7XVpHYpNa/ETjLygrY1bqJW4UlzYJIhH24tYTRJluJe3whacuygSkHmVqXCjmkT5877UEY/ksjNZPxXD1FAzXTMVgzTT0105Hf+009NdNR2/9DPQ2zEB300x05Zbo1JEVOgpribQV1tQnLYU1gjQFOc5Gb/NifohXYL4/kPWndrLh1C42nt6jpDOJbLl8jBuld5/Y/ExLPYtstjdLO2/CXsjgqTlIqui+Wgq29vfjiPsRci88eyVX8Od4xFE8BrmzVlvBYi0FCtMQzqU820ScVBHP8ffqAikinaXzXw8gScOJBw8QXg6PHL5BbMx5oiPTiREUkU7s4xSZTmxkOiEBabgoDuLiqCR318PERJ1D9MaeWw4x2n4ngWGnEfPF2JhzxMWeJynxsmT2uda7x+nQ47j8IMPHNoC47BPEZZ0g7vpxYrPSiL15mhiJTuF+dg8mofZ0Dl2BQdRy9LctRs97DnquVug5zkJXNhNdh5nKo2wWOg6WSnK0QtvNBm1XG/TcbNB3n0dn7yUMDdnIxCgXFu4KYGXStkZp/eFotlw6zLG869Q8uPdUie3H22zasbNEKeIJs4li24xg9izZQfKaJE6Gn3k8aJPXol4ubT1K4A8ekviRWJRYpOvIludoV00m/tgDFZAeY8jTLkXFCGmKwsIKTqXlsGf3JXbvvsSuXRfZuTMDD/cjjBsbQidjFwz1nDDWc6KjrqOStB3pqK3AuJZ0HOioI8NYV4axnj1GehslMtSzw0jfAWN9BzoZONHZ2Jkuxi506ehK9y5uDOi/GUf5AZKTLrN/XyZbHBPx+NGJuCkeLD4RjMU+TybtcmbGgc3YHAtm6ZkYlp6JZtnxCFYlBjEg0RHD3esw2r2erombGJDsxPg9bkxJ8MBy92bmJwcwPymA+YmP0e4AFicGsDQxCLsD0cRkpJJ68wolVc1bDHoaX5/2LPfWba5cyqS6mdIV4gNz5dxNLu69xJndGexfuh2/7q5s1FGwVteR5dqObJ4RTXlJ4+oUT8vL0569skCKjkjHZlYU+fnN0595GXMkARwx/BLG/08cv4EQVzqwN5OgrScxH7+NjvpOGOk7YSiRM4b6zhjpO2No8IiEgK24b6DriJ62Ah0tOTqaMnQ07dDVWoeuti162ivQ1V6CjvZCtLTmoa29DG2tJehrr8FAdw2GgvTW0MlgLfratvTsJmNAf09+6utD395erOruzsWp4Rzam4FfaBJu4TvYe/I0WbdvPVH3AdeOMDctjAWnIlmTHk/I9VRS8zK5VHCLgormmU97ItFX4EZZaQXpqdc5mpTBestgNnR1YkMnBe7GCtx1FWzUcZSAtFLXUVrBSw47xY2M5g0Pm1O8VxZICQnnGTvGl5Dg5rlL/DWBdDWzgLNnbnHmdA7JiRdZvXI7P//gRld9J7rpOdFdz4muuo50kXobJ4z0lIBSguoRiASgBJAkMOk5oa/jWA9IG9HRXI+u1hr0tFehq7MMHe1FaGnNRU1jFu07TKH9d5No39aM9m3G0b71GNp/O5rvvh1Jh3aTMDRYQrcudnTtvIGpBuvx1trI7G5ufN/DA5MR/ni4H+TQwaucPp3DqbQbnD6VxZmzOZy5fIe060Ucu17EEUE3ih/RtUKOZt4h9XIeJy7mcPLiTU5eyuH45VucuHKL09fyyCsuf+qcrTmN7tcKIz50gjJOZ7Mn+jjmvZ0YpbsJE117bLRl+HRzxc/QCblY4dNxZL2Qy9NzYq6uAxMNN7FuShA3zv86YHplgZRxIYslC0IlA/7ZWUVPnUgLZnbq1LQ+klAIvHTpNplX8rl9u1hKS8Rp6rdobjzfd3WnZyc3ehq70MvIhZ6GzvTUd6annjM9hFqIAJOeE130nTB+2DM9DUgCbAY6juhqKdDRrO2VNqCnvQ5jg7V833sjP/20iWHDZAwesoEBg1Zi2Gcx/fotZoBECxnw43x+7juX/j/Y0O97a7p0m853emZoak5moe5yths48lM3dzr38aFrVzdpONjJ0Ak93ZUY6a+nc1dHOo0ORtMynpZWO/jYagcfzd3NB0v38t6yfbw/fxcfWkXz+dQgWk1wo42ZC60nufPNFC++nbEZ7QXB2MWkciLzNuez73LhZiEXb+SSeeMWxSVKx2hN8fTXvi/qr7KikpsXbjPKYC3DtdYzQnsDI3TsGKmzAQvtDWxQt8dBgEhbKVG+7qGAq43OJgZrLqafxhzm/uhK7lXl/tnT2sSz8v/KAklk/MD+TPr18WDi2CBuZhchbIoLuvUYZWXdRV/fqEnp75joNAz0VvND700sWrCN7Ky75OQUS+nUplkgqXWUSyaZPd0OM/RnX3p2dqNnJ1d6CTAZOtPLwJleD8HUXc+ZbvpOUi/VxcCZTobOdJTIhY5GT1Lnjq707iGGY5vp328zP/Xzpn8/TwYN8GT61EBCgo5x8kTD1aSVadfILK2QJukVVTXk3S0nJ7+Um3klZOeVEHMim/HuxzBaksSkyVFECpWC/n4YLtxN5/7udOwow9hIJuludTZ0QU/LAT1NOXo6CmmoKeZxOr29+GZSFB/O3c3nC/bQZtV+OqxPoc2aA3yzah8fLUrivVqav5sWU/z4cLIvn0zbwufT/flu1Co6mS7GJ2wPV7NzuZV3l7yCIsoqKp/68XtWw3zW86rKao4mprFQR84wzdUM1VzNMK11DNNey0jNFSzR3ij1Qhse9kQCRGv0nCQpiJla6+mjZknn78zo3nYSNj2cuZNTLOlqvSiYXmkgCWaePnWd0SNc+bGrO327e/BTby++7+kp0Q89PenT05NevTx5551vmwSSMPZvOspHUg7s23cZXTttpGd3D37o5UW/Xp707urK9MkhrFgaxpHDmezemYG5WYgEpF6d3ejVsREw6TvTQ1+AyZmuQtHQ0IVOD6lzRzd69fSiz/feEv3wvTcjhwfitzlV0sd6ViMRlXnv/gPCj5zE9sQ1LuaXEJV4gUE2oWiZeKNt4o2OiRfaJl5omHihPtobzZHuTBjgyJ7vXeg7whW9H6eh22sCeh3HMeBHL/r28qJ7J1c6C9CLoaiek7QgIuZ3tcPPSRPC2LPnMjdulZB8Lg/fQ1n84JrKN7YH6uirVftpsSSZ9xcl8b5NAi1mhPLR9EBamaxHc/AcdAZbMXC6LX6ReyRAlZRVSKC69yta/REb1Tcv52GtJWeWtgNDNFYwRMOWYRqr6d9+NnO1N0igWa3nRC2JIZ2YHy3VVmCuvoou303CuLUp+l8PxfCrkcw0dqGkUGkg5UXAUn3VHQAAIABJREFUVB9If//733lDR0fnWfXc4Hljtr8bBGjGRVNqFPWjCuaVl1dRUlxZp2Iu7DnUFvppc6TtMecRw7X6PxGvsrKK3Ny7rFjuxwwLX37oKadnVxd6dXOnZxc3JBDVAclVGuLV9UwGzvQ0cKa7IENnuhq7KqmTK1Mmh5F+NldyNlD/nU2di7wIuv9ASTX3HnDk1A0GzwrCcJQH+iM80BvhifYoT7RGOKM9cA26P85F5/uZ6PSehnavKWj3NMew2ySmGc3ihslW0g6mczHlPIltZZRdKZB8FK213UPfnp50NXSRetLOD1cWxZBUIjGfE+d6Towe5s+hlGuSlIAQU6r93SquorPiKB8vTeLDxUm0WJTEB4IW7KGFdQzfjLFD42cLtAZZojfEGqOR8zCdJ+fIaWE/4YH01RfqGLX1Vpvu8xyzrt3CvP9Spmk5MEJ7PQPVFzFEYxUj1RYzR9ueJQIwuo4sE6t0uo6seHhcJuzpacsxUV+GUatRGH47HL1vBqHT8mesdRyZoKWgtKjihbSI6wPpjTfeeHWBVNvYGjuKSngqkGLPs2jek0ASaYlGIlx7VlXVUFnPrsSSBQnNAtLgH3yk/aKysmrJloSwI9GU0+mmGkt1zX2Onr9NnznxdLSIwcgiBoPp0bSfHIHucBf0f7bFoN8SDPotwOCnBRj0n4tBPxsMf7TGsK8l3w+fj71bKGVlldy6eosE2xAu/+yJo8YmklrLOKDuyLEuXhRfviOVUdjQmGcZQxcxx9N1orOOI8a6jsqe6SGQRK/V08iFn7p7sHTeo/08AYKKmvuUVd+npPIem49kY2B/mA8WJNJiYRItFifx0ewIvjLdgMYAS7QHW6M/fD5dxi6lx4SV9JuxHp+oZGkboSl+POv+tcs3GWg4CzNtGT+q2dCl3QQmaazDUt2BORpy5msqWKCtYJGOI4t1HFkiSNuRBZoK/OfvoFLY+yivlKi8rIKsK7kSkKZoKTDv6EJB7tMtBjWWv9cGSI1lvv69poC0Mz6DgT95s2h+dP3gzzxfa5vIDz086N3Zjd6dXPm+syuTxwYTHX5G8l4oPBgKElaSqiqVPWNzv7IiXNatEpyCTvHjrBj6WMXSZVYs6hPD+do0iFamAaiZ+qM/xA7DQRswHrwe45+X07H/YjoOWEinQQvpPHQRP6/aglfqJe4UFFNWrpyTCDmzrAs3WNN3CQlt7EluJWNfKxkHWss4auBG/vYM7pVWSz27yL9sbbI0/+si9rl0HJUrkLpi/0sJsC46jvQ0dGFQH2+mm4VKH4ta5olyCFDll1WTW1LFwauFTNx2jk+X7+XD2VF8MtWXLye60mHEcrSG2KA7YgGGJkvoMWk1P1pupM9sGUF7jlJc9nx7UTXVNZw5fom+HSz4WX0OI7TWYKZjzxRtOTM0FczSVDBbQ8EcDQVzH5I4X9TLk1ivw7XZl46iDHdvlzBD15GZOgoEmBaOCuD2c5otqw+kN99889XtkRqUvpGLpoC0a/clHOQHyLv9fHskt3KKuHa1gBvXCyXKul4oLXSUl72Y2rXYyE0+loXNxn0Mn7OdgZYx9DAPQ9ckCHXTYFqOC+Wj8aF8Ni6Yb8YG0WGMP4ZD1mE80oXOo13pMmQNXQctZeZiL/bsP831m/mczsol8HIeEdlCoPWROeI7l/Nw1lpLUhsliPa3kpHSSsbBVjKOG7qTYRZB6WmlWa7CuxVS+VzlKXQ3cJLAJED0/7d33kFdJdu+f//ce8/559atuu+9eqfuzJyZORMlOyjmnNPoqGPCnHMecwJRRHIUJSlIzggIIiA555wFyUjOOOfzqn+IQxRw4nHYVat26u7de+3+7tW9eq3VMyYYSiSVAJKg2YqGEq2l8iprLp/2obJiID87un6korGDvJoWwnOrOWUXzd8O2fDBASs+2nuPr3Zoo7jxPBM2XWTC1iso7lBl/nEdFusFs/hevEQdP8inHXBJNP6K0mq+nbyPJbIH+Vb+NOsVrrNVUZPdE3TZr2jAoW8MODLegOMKBhwTNM2QhxqBkq5b/wLrK5s4K1wxJhpyWNGAPRMNeZFXM6ruZ28g/eUvf3m/gJSSXM6Fs75oqAeNiimC0WJMJj7Yz9lEfofH2RxVD2bHJX9Wie7UDmcmb3ZgsrIgeyZttmf8Fgc+3+7M/93pzAc7nPhyuwOy2+2Zvk6TmVvMmbXNHEefBNKyiikpraG1tduKW1h3V7V28KSiBbey7r+6kEgv08qxH6+Hm4I+AkSCBIgiv9Ql+gtdEmQMSF90n5ePsnj12kdHSCcfrwwO7nFh2kQjponu3msQ9QBJgEnQoul32LnRDhP9MIk2dTAedXS9orSuhdiCKkwDM/mfw9Z8eNCKj/ff45MDFnxywp5Pz3vy+UVvPlMN5vMbYQTljnyRM7Foc1JMBjO+2MhCmf0slzvJGvmLbBp/g20TtNg5QZc9E/TZN0GfvZN0sbrxRCJ5BqtrU00zRissJEatxycacuAbA65vd+RFwcAQ0IPlF9d6A+mvf/3r+wUkF4dkzp3yIjKiYKj3/1nXW0WAkcLqAWVYOCRzSj2YQ9ef8u1RT6Zud0JpiwOTtjgweYsjU7Y4MHWLA9M2OzBVgGqrIzJCIu1y4X92OfPFTicmbrVktrIRfmHZxKW9oL6xTTKe6/8wAdboijoMkwrIf9kd27ujsY3nj7OwVzTAVV6fZz1A+kKXmC90iRdg+lKX9IVW5O33oP5pvqRYMXbKzanGxTGFzRvtJFq9qUo/SaQeIM0WEmqiESsXmnNglzOebmmI6YPBNjGmetnURkhWGW7xz1G8FcwHF5/wwZVAPlAJ4aOrz/hYNZRP1cJQ9c/nee3Iu3kiEGR0aBJzpLYwX3o3S2QPS6TT2vGX2Dj+OsrfqKOsqIaZmjeVL+oGq57kZ9lS24L7QWcuKBlxWsmIoxMMOTjRkILUgZYhgxbyvgNJqJtvqwfS3PyTH85QjBjt9YKias7f8OaSTggNje3cMIzgwu1nnNcMYdU+V6Yo2zNxswNKWxxR2tZNk7Y6MmWrE1O3OjL9Nc14vVfc7syHe1z4x0EPLtskEBhbQGhcAa1tHcNKxvLGFlxyXmCX1/3hBbi62jop9M3CYZqJBEwe8vqS7l1cLyAlfqVLkow+2SttqPXIePMcEfIsMbEUW5tEid2g0OIJZUR/IHVPSBuzaa0Np495EhFWOCQbRZ1aO14RkleLd3o1Z71z+OxmOB8KMKmG8neVUJYZh7PLMxuvnGqaXkvdIQt8fUOUGxoQy8JvtjH7623Ml9nHYtmDLJE5zNUDd3nsGEXZ85ohi6mpqkPvkhV22+24qGTEWSUjTigZcUjRgNSwQjpHGCv9vZZIDyzj0NP+KSDhkNwc5Y3c/CrOqj5i9jorFm534qJOKPM2i66YLdPX2zF9gx1Km+yZuNUJpW3OKG1zQmm7E5O3O0mk07TtTszY7sTM1zR3pzObL/njFFGEW3QxBRWNQ7p8D1bVhtY2fAsrMMgs63NbBFMseJxFknEkjjPu4C6vL+neCWkkQJT4tS5JX+uS/LUuOd9aU+ua3ifakIg76P0og7um0RJ7wulKRsxU7DaNEiCaOUmQMWJCevYUY/bvcsbdNY3KYbReQkqJcZRbaiWmkSUo6kSj4p/Po5RSPLJqUPFJQdsrloziyj7v87aTgEdh/HBAnXlyWzi8SQU7M28ykvNpaRpawolxa2l+OfpbTDGYYyqxDD+nZMTJSUYcmWiIlXogFUNIsv51ec+BFIueVkj/d37nc/H3y8ip5NwNP+auu8+sDXYSmrHRjhkbXtNGe2ZstGfaJnuUtjoyQXTrBIh2ODNlhzNTdzgzfYczM3c4S5QOejYJuAfmEZZQ+kYijLaCWZXVWCdmEFU+cIwh6txS3USuaypO881wl9MjZJwucUIavQZSyjg9UsfpkfutNVV3omnp1aURjU2Mn2wfJjJ39l3J+GmGsDOUAMn4DZAEmGZNNUZ5vS03VAIwMgjC2CgAv8eDB2nsecfG9i5cUyopqWuTzKOJ+kbkVnD8wTOu2ASQnl/ck3TYfWpSJu52fsSGJ9NYP7gKW5RfXFCJjWkQFtrB3L3gjvlKS4nFg3CxOC+6d5OMOKZkxOHlFmhd8iHYL4vaIbquPZUaAKS//e1vnD9/fsSkqKj4xqJg7969PeWOaj+SCdnhChxMa3ffIhZdzV8GSDUvmwgMy+P8rSBmr7NmzkZ7Zr+mOZvsmbWxm2ZutGfmJntmCkXCVkcJiCYJEO10ZupOZ2btceWIRjDWXpk8DiukvGrwDz7c+/a+H/68FJPoJEQ006E20YCynVNw//4hLooG+MjqESXVLY0EiFKl9EiX0iNrxl1KTnjT4N8dA6KnvM7OV9jZJXHlkj9zpt9h6gRDiYWEsJSQgEjsJRPTxsydYcK8WYYsmKPPxXO+NDaMvmsdll3GcaunGPvE0DZEvImeuo10n5P+AluzELSverNpoT7K03U5oaiN+qRuPyUBJCGRfhBAmmjIuslaLJmsyl5lI8z0n1KQM7SB6wAgSWZlxczsO9AfDkjmseje7hs7eqRM750uN68CS5tI9p70YM4GOwmI5m6yRwBIUM/xbAEoQcrdNGWro6Q7N2uvK4c1n6Frl8Q9tzRi0ireWfr0rpc4LnlZy4OoBB7EJve/Neh5nncWoSoBOC4yx0NOgKkbRGmvgZQhrUeWggFF39vS4DEwglNebg3m92JYvsRSMuckJm5FF0+AaeaUbqk0e5qJBGzzZphKJJS7S9qgdXnbRQH8oMwXXPeMxzf5+c/mV0ZKMTfOOrJm5m3WztBj4wx99k/R49IEAwkJRYOgs5O6JZKYU1o9RY35U84wQ/Ewq2aqYXTTn6K8wcE0BqS3fU0gPbOMm1r+rN70gAWrbZi3wU4CnLmbHHhDyvbMfk2zlB0kx3OU7Tl2K4ibFrHoOyQTl1lJ2wgHrsNUqc/t4KJyNJ7Fk1A4/NIjPRkbSxtwvenLndnGuMnoSiSTkEbpMnpIgCStR660HkULLGj0zkLED++/PbRO4NJFP5YuMGPaRANmiPHSlB4wmUjMpeZON5XYK+7e7iQxmepfxnDnHZ2d2IZnsM8yiODMka0KMViZmWlFqPxgzfIpKqycos7aKZrsnKzPKeFSMakbPAJAgsT5qUlGHPzGgNXTVFkw/QwzFfczXXY/38+6hd2d8EG7eQOApKyszGjoq69+Cl7/R5NIVuaxXLvkQ2Xl4KrPwZje+1paZgUXVH1ZvNqSRasesHC1NfPX2f4EJGUH5ik7MHezA3Ne0xGVAFQMI1AziSI1u4r2XwE8PXUUf+0nZQ1Y5g6tlepJ23tfWNuIweMwrhx/gO40A5ykXoNJWpdMaT2ypfXIk9WXUOFsMxof50jAJJ7XexOu9XeMI1ix5B5TJuoyfZLBazCZIFYbEV1AIZVWLLZEWIq8y5b9opIfbJ6y3sCbxIKRq6N7niVcLUx0XFk0+TSLlc6zQukamybelswVCTW3mDcSgBLjIkHi+MREQ3ZN0GXVjGssmnGaOUr7UZRez0KZ05zZZEeof5bEBrHnGWI/AEi9b47k+OjRo2+6gX80IDk5JrBnlzXurnEjeRVJmpS0CiKii0nJqEDHJIxtB1z5brMDi1ZbS2jB9w+Zt9FOAiABonmbHZm32YEFWxw4rupPcsbIjVV7V0o00lddXdSWVlFfVkN5drFkMS7J9bZO/vlqYOzuuuZmXJIzsUnM7F3UW4+FxswiPpuDLk/Z+cCdH47f5/ZMI+xkdYmR0pWASEijHiCJfcHUOzQH5w86Sf3q1SssLSL57ltTpk/WZvpkASYTZk0xYc60OwipJJbe2brRnoz0kWvher9EZM4LNht6csjCf8Rq8Z78dbV13FaxZo78cRYqnmfVNzfY/o0Be77pNgcSam4BKDEm6iFx7cZBB66fs+HKGTMunjTi9FEt9izTYr2iPrdOPCIvs++7vNdASk8r4vwPzpw44kH+MCYfooGVvKhm215b9hxxQ980Cp+AHAnp3onizBV/Cf1w9QmnVAM4qRbUh87cCqa4pGpUxpgCJB1NrbxMKaY1rIj6gGyibrkQremG12FjGoJzaY8vId83nqqQbDr7rX6YWVKKsY8/juGRPe1m2H1BYyfXQ9LY6xbCHqcAdtn6cOKMDdfnGWEzXo9Ead0+IOoBVL6iES1RxXTVtgza1XNxSUB5411mT9d9A6TZEqlkytwZpiyZZ8apY17D1m+oBBG55Rx6EIJ7TB6ldYNP/g6WV1h66N58wPRxB1j+jTprJ+ixaYI+W78xYEcvQImunIQUDbi81obK4oELVz/QCkRZUZeNigbcOuVNSeFPWtL3GkiCsU/8s1n7nSXHDrmQmV5BdlYVOdlVkr047qG09HIuX7Vj2sxzRES9fQXrwT7YaK8JELXXNZPnFoXvils8n3WXsgWWpC8zJXy1IeHfGVL6nRXlyg8xkN+Pw6dHKTQLobn0JV2vtVjNbe24xiag5xtARd3bvYhF/cTP4mZaA/sfJ7PPK4J9HqHsdQlm8wNPtly15vy3d7CT1SFZRo9cmZ+kUr6sPj1Uez+BzsqmQSXkw4chrFiq393FE3NLr7t3AkjzZ91l4/cPKerV+EbLs7jCKlYbPkHVK4GcmpEvDmB334cVM08wV+40y8ffZPVEHdZPNGDTBMM3gBIuFLsFKRmSFF44aHhjB60QdikZskXRgHWKBuhe9n+jBHnvgSQ+VmRkDnt3WbFx5QM2fPeAjWtt+H61DetW27B+TTetXWvDt6uMWbLsPAkJv/6aOi11jWQ/DMF33nV8DhlTWz7Q1EjUvb7yJbY7NTj55WrMP9lH2GlrylIK6HoddTUhL5/z1raouz+irLmV+l7RVPs31Iq2V6imNXHgSSr7H0Wx3yuS/Z7h7Hd7xoaHj9l2xha1mfpYjNchWUpXAqYeAPXe196L4VXtwIZsaurL8mU3Wf2tMWtXWrFk3h1mTdFjzjRDSfduwey7bN1o179aozpPLatnpt4zlprHS8yJun4c3rdJ2E0+tPBhruIB5sqfZKmCKisVNVmjpM/6iYZsmmDAlgkG7JtlysXt9tS/7BsWWlRQ8NtN6xmHpxizXfhrKRqgccyT6tfG0H8KIPV8KTG52NLcTlNjt3OgiBAk5keEdPittxi7J9xZc5H8iBTaa5pof9lEZ3O3K4SoT/863VY+g/KHczD5Ym83mDIK36TJKC5B1SeYHU8S0Y9Jo6Gzezwlymh59U/qOv8pkUY3Uhs5GN/IgYB0DnhHd9OjKA54RbDB4SmLLHxYddudY+vvYaagRaro5snokS/3k0Tq6eo1iTGTGLv14p04bu/spL65laycErQ17Jk/8xRLFtxg9bdWrFl5n60bHnavuljfbTvYO/9Iv0FlXSMXbfyYYxxHlrACGYGBcXZmAZdO6TN53DZmyR1lkcJlliuos2qCFmuU9Ngy14T7ekF0tHcNWo3CvFIsLz/i6EwTtk0yYquiIRsVDbl16pEk/Z8KSINy6He6GOv4FB2pXbjLncFH4Rzuk88TddORzrYOiUV2/8YR4xvKydnbUPtsC5bjjpNg6EtHP3u0hKoGlvulsTu2ko4f/0lj14/o5DWzOLqZsrZXXEup52B8AwcD0jnoG8sBb0ExHPSOYrNTMEvv+7Hg/hNWantxbP1d7srfJltG9023TkilHiCJ45bIYolJkQCDIOEe7xwRzzYjW+4Fx0tiTfQARexFyCx31zB27HFl50ZbSUBN4VApfmbCwbIn7Ug+iUhb39qB4u2n1LW0j8ir1c3ZjxnfbGTCF8pMldnHHPlTLBp/mQ1zb+NiHT7k88Wz3M2jOL/Skv3Tjdk62YgtEw1RVjTk9vHucd8YkEby1X6FNAIorzq7aK1voiA2Hd9b1uhO34+Z1D5iJ6h0D+p7/e1FetG96GhpI/2yJ7byZ4g06jt4F2Og7MqXbHcKYEloGYtjmlkQ3cz86GZWPXvOXh8BmmgOir0AkoS6gXTAM5xNDkESIC2wesoKTS+OrDLCWEF9SCDlKRjQHNYtGUVMBvvUUlQfRaFh78F+cw90nqW/Cd0lGqMg8R5tbV3cVn/KqiUWLJ9/jyP7XcnMqBi1okZoDAvLq5l2yZLqxoHdsf6fTTzbxcEH6U8WMf7T1Sh9sYl1i8/SJYD8ami3mc7OTpL8MtDYas/OyWNA6s/XP8S5aFxC7d3R2kZrXRNttU101nVrxsS9/pu4VnrOjyefX8X0mxME6f60bmxh8ysuZTazMPwl8yMb+lJEHbuFBPKK4IDozkm6djESMB30icYxrQDH1CIWWAWw4H4gC6wCWabjze5NJuiPVyNbSq+7m/da8fBGMk02wX2GEXY7HEl+mkO9eI/2DjKLS9EJiEfZRSg20jAMTSepuIKSimqqa+sknrZike6KinrumDxDeZ01qxeb8/0SCxwexFNfN7SxaQ9PBC86u7qYctWaosqRrdje3t5B6YsKRFevtqaBxobhNYBmmn5c3mDFyYVmbJtszJbJxmxWMmKjCDr5WhM5JpF6vsq/0L7mhD/Rn97EQfoc/icteVlcSczLdjbEvGRpVB3zIwTVDqDv/dLZ4xnBfs8w9ntFSBQOAlDHfKLxyS7GI7O4G0gPglggSIDJwJfduy3QV1Aju2fM1KuLJwCVLqtH2jeGVNsmvekeidDB9a3tpJVWYxEUwwWnQDbdf8pmp0S2Wgew/eEzttuGsv1hCOuMfThi5EZ4fD4FedVoXA9gyxob3ByT35Q31OcRAVX2a1myy9CJirqBXruD5ZNI966RjY2rq6rRPebCvqlG7JhiJAGRBEiTjFg/wRC1X6Nr99///d/IycmNmv7rv/7rzaTulStXBnv3Ya8NZrQ6bKZ/0QT1p5+Q+g8NfGWuYTvpEmE67uQ2tnM5tYb5YVXMDxd7QdXd5+JaWBWLQ8rY7hnJPrdg9rk/Y597KPs8wrBOzKG6qQWPjCIWWPghunZvyCKAZbpeHFylh+F4NTJ7qcV7pJLYi0nc2gcJAxq+8OKta2qhrK6R/OoG8l+2dO/FcU1jN1U3cN01iEPPioipaae8rAEXxzhuqT4m0O/t1uMCFM/Lq1is5cnzmpEBaaSfXUg80+sB7Jlzt3tcJMZGU4zZPNkYZSUjts2+i/GtIElxv6hEehdD1/55xoA09GfuaG8nzOspCYsNyfzsNkGyN3CSuUDAYQsqX1TztKyBhQG5LAwpY+GzUhYGv2BhcEkfUnZ4wi4nP/a4PGWPayB73YLxziqSjF288ypZbh/JQgEkyyevKYCF5v58q+HGpanXMVK4TqqszhulgwREYt5JSo+i7x7S4NfXanzot+l7p7imnsTKJgwz64msbKOurgUr8wgO7bLH0zmlb+JeZ6KxC1qk5UleRd2gXsS9ko/q0Mk0ioNLLbuBM8kYZQkZSUAkNHY3Dnnw4nn3pOwYkEbF2t8ncVpsMn5XbPHaZ8bd5VcJ+fwaWZ9oEianjrfsVeymX8V1mwH+B+1ROevKYt9kFvtnscg/k0V+GRJa/DiDxY8zWekexVYHX3bae7PL0Y/DbgEEZHd7tlY2t2OWVMIip0QWOSaw0CqAhRaPu8nsMd9fc+Di1OuYKaiR3AtMQhplj9MjW9aA6rux78wkMT2RWt2CaW4j4TUdlJbWYagVjN6t4GHL3G/syi2XQCpqfzmpVJBZRVxIAVd3OqE8qRtAYhJ3k6Ih6xQN0bng90YC/2wgiQJsbW1/Fk2ZMmWsazdEUwlUd8ZaWRMTpTMYyJ7g0YQrZH2sQfZHmkTK3MJfTpX70qfRGneQuwrnMJ9+A519dix1DWeJW8QbWuoawVLXSJa5RbLJPYztj6LY4fiE+9FJVDR0+0SJP3tAXjlL7CJZ7JrOYvtoFpl7S2ihuTcLzX3YcMGay1NU8ZHRIENGV9KlyxUgGqdH1jg9qo2jh3iTkV0WXUG95Cqc8+okGj9H2wSuXfBFeOu+bXuWmMl6Qw9yBnFufFu+4e4JcD92ieHgGgu+n2AgAdEGsfrfNkdiQn5yrf/ZQBquIiO5v379+jEg9WKUaNAvK6upVwvm7qSz6MgelZC23BGiFNQo+bs2mR9pESOtQaC8Gg9lzqAxbh+qUvtQ/XwPRrJnuL3dkhUWrqywcu8mC3dWWLixwsKdtfc92OgezmHXAMJz8t/8VUUVntc2oheezrKHoSy1DmLJPQ8JLb7nyeJ7Xiy+68m16RoEyWiS9bpL1wMiAaSyM4/pyB959J1er/3m8EFCMR7pZbR2dmFnG8XJ4/aIFULetrW2tbPa5AmZZe9m6T9Y2WL8JcjC5Am6aj542MQT4JyK1llfTG4ESiL+9uQbA1IPJ/4gewEiYUtXePoRzz/Tw0j6KBpyB7ktdwhtmUNEf6lC0UdaZH6iRbz0bZ7J38Re9hw3v97NmS+2cviTdRz/dD36445zdac+bkkZ3ZSYjltC2mtKxSOzkOCcQsrr+q4/JbRg4XnP+e6OEyvuurHM/BHLLHxZaunPUssnLLV+xpGtd9Aff4FIKQ2yxulKJJEAUY6UHs/nm9Ngl/SzuGkRlYNTYgHN7Z042EVy+oQdBfnDu4p8bxpA5jtKJMF3EXFX0LOgOO6b+2Gi74LWLSvWLVfDxS5CEo1XpMvNqCQlrqTPO44BqQ87fv+TV62dFBiEkPaFDumfaKEjdZCbsvtRlzuAi9QZsj64SeH/aJLxDy0SpDUJlVfHSe48Kl/vYN9na9jx8Qq2fLyUfR9/h738VWLuPpFM/I7mzUpe1mHsF8JmE1tWmghAebDc3JvlFo9ZbvOMNTqumGg6kq79FJ9lenjJqJEwTos8KT0KhfZO8+cFnDEIy8E6vpCWjk6c7OO5euER1dXDu+Svswons6Lvj6H3ewuTsKy0ch47pxDkno6fSyqudkkScrFNxN4qGlvqQoXBAAANkElEQVTLSI4fMEDlopUESIa6ttwx8CA7sy9wepcrjseA1J8jv+O5+Nu117bwVO4WIXIaeEuroPb1blSk92D01WGSP7xO8f/RJOcDTdI+FxJJkzD5W3hMvIr5WhWsVUy5f9UYqyvGWJ035PEeM+zkLxNj+ZSOltHFTaiqa8ApNBrTgHAuOnjznY4lq/SsWWlox8q7HpjH5eOflo/nAz+e3vLEa6U+T2TVSZfVp/qML13F797F0o8rxSGjCjFeErEJNa4/lcRTH+7TrHNMJ7Nq8AnWwpxqvB2TsTYKw1I3mEfW8bhaxnHfNJoHplHcN43CyiQcS+NQLEz8SU/JRywdM9JtDEgj5dRvkO6fP/5Ic1UD7nKqErr59V7OfraFG1/vxufv58j83+pkf6hJ6heaJIzTJEpWg2D5mwSuMSTDq29Ma2FOVBSfQ4KMFndkzxD7IJC2xuGtBfq/pjBCTc4rxPhRAEbeTzH0DuK6iz83nyRiGZpEWW33ukKh7iH4XXEl9ZgHqXvsKXoY22fs1b/ct53rpdbinN8oye/mkIzeze65mrflEW7p37vkklnd9x3Fz6kop5p7msGoHvfA3y2F6qqBvkZvK3sk98aANBIu/UZpBJDqy16i/9URLKXPsPujFdz4bBcPvjpJzD9ukPwaQLHSt4mUvUWI/E185VSI/sGR9kEC0b9qbCdXShsPGTX0pU9SFJ1N1y/g+l5cUUVhWQWt7e0DwFJTVkO4WSBRqt40PyugKXdw95C3sVQ3tQ7n/O6unIdDMgYjAFJgVim73dPJe9kXSEV5NZhqBHHzjBcxYd0RZd/27He9Nwakd+Xcr5BP/D3rK2s5+slatKUPcvjDVXjLXCNMVoNQ0d2TVydEQZ1ghZs8lVfDT14F96nXidXxHrQ2XY3txCnoECKnia30VZ5ccaDhHQfjgz5giItNNU1UOiVRtNOZ9DM+tMWVjApQuok1OOV2j3U8HVMwess8kuBZ3It61lhFYRWWQW2vH4qQylaG4aie8iAh6tcJW93DgjEg9XDiD7JvbWhG69uz3Ph6D9ZS53CVU8FTThUvuet4y6viraDKI7lreMpewVHmPH7771GaWkBrYwvlWSVUZ5ZRX9ytKhYSKWO8HnHjtPGSu4G59AVKYvMQVtO/xVYRVkS8sj0vtjsSf8idzuRyOtMr37heDFUH/ZhS7sSXU9PSiYdTCga3gga1DBcLs6VWtjD/XgSH3FOpbOo7DizILcdE4ykBXgPDig317He9Pgakd+Xcr5RP/GE72zu5ueAEN6X2oi91DHPpMzyUvoi9zGUcZS7jIH2Jh1LnuD/9IqFGHjRW1JHkHonesqvcX6iJ3w8Oktr92NhOhYwuKV9oEyCngaP0NSLM/GioGV4RIOrR1d5FfWENNYVV1BXWSMAqro9mE+lfZlYSusme6qX3KVv9kKakMjryayTu6oOV55RQyA7nJAmYHtgncfOaH6Ul3XUW6cVKF8W1TaRXtbL4QRK77OKoax2oGLirF8ytKz6kJb97KK+RvusYkEbKqd8wnWgsLY3NXJ69n7NfbuK61B50pA5jLH2Ce9I/cE/qNHcm/UCIkSc5z1LwPmqB/RwNTOepYTpfDfsdJrTUNdFeUk+FtC5pn2kTIquFh8JNDGef53nC8PZwr9q7KI8oxGaeHndXaWK/wojI+8GIRb7edets7aQoMIviOebkKRnSnl3Fj12DS0e35OfscEtjm3Ush865YKQTSlVzJ5XNncQXv2TlHX++d89F2yNQAqzB6mSm+YygRyOPsDRYGSO9NgakkXLqd0iXm5jJD7N2sO+TVZz6dD1XvtqGqvQuVOX2EGb5mNiHQfjMuEX6BGM8Z2hhuOAaJguvY7riJjbHTEjY60jZOB1SP9cmUkYbPwUNzGXOUxL1diD92PUjteGFBC+6g7uqHWL5lILkXCwmqNMmfKVGKZX6s04E9/c75EKRgj7tudWDRiUSeYSvkWPSc1Ze8mHFDhdmm6WwyDGHZfYZnHQZ3hTJXCeEIJ9fP5CNqOsYkPp/5T/QuWiwTXUNnJq7gy1/X8i2jxez5aOFPHngSXtbO2WGEaRNNCZymjFOszTRX3AVo0WqmK5Rx17FkmvTjlD6eTeQomW0CVC4jY3MFUqj8t76llVh+TxZdIfIs14S0Ih6tLe0oz31CtnhGW+iGL21kLfcFOUJsllmQuxKa1qHiCzUk662thEH60guH/eSLKDdc/0tj5DcGgPScBwa5P776o8kGk1bcyvN9Y0SamlokjTkAtMIwmcaEznDBJ/ZupjOVkFnwWUMFqtgs9eItqKXFI7Touj/aZPyuTbRMjo8VdDkocxVyqKGVgMXJuXhd9CC54c9JWss9bBaxIe4Nv0Mfidcaasd3q27J9/b9h0tHRQusKAtc/B42j15BQ+io7LYstGQC0f7utf3pBlsb6YT+ueVSP/5n//JBx98MGr693//9zeGr8bGxoPx9V/6Ws9fuGefZvAMr6k6+M7Sx3G2Bpozz3F73nl0F1/BYPFVnBbdovhjbVI/0yZOSptQOW38FW5jJjd01678eRlJOj6Un/Omo98yJgJI96dpEHzbm7aGvnM1P4exKXPNaRkGSKJ8YQMXF5vNsYP3OLnXlYryhmEfa6YT9ucFUn9Hv3c5fx+B1LvVCEVE0C0PLCar4jRdE8vp17k65Rg3Zp5GbeYptBWOkPnpbbL/rk3C1zoSaRQsr4WvggZWCpcIPeFIXU7fkLtC6lU6xFN5PYCOsoHBJrtaOgj/WpNEjyja+0Uv6l230R7HzregaQRAEuWKiEPPi6rw8Uhm23fWHNvu9NbH/akl0rsAp3+e9x1Ir7pe4avhhNr4o5hOvYrxtCucnXqA61OPYS97kfgPb0hAlPyFNjHS2oTLivGRJm5yN8h1iyf8mBN5OxwoOehO5kkP8o578mKXCzU6oXQMEqpXtNZXLR3kyerSVDqyICNvbeGvbzpq2+MxXY/6rLd37XqXJdwaGhtbCQvOZcFMNX7Y7cLlk49obBjor2Sm/Sfr2qWkpODv7/+zSMSK6AHU+w4k0bB8bztxSWYf1+UOoy13EiuFi/jIqxExToPkz7VJ/EqbWCltImS1eCavxWMFDSxlLlKZWkxddgVNMcWU+aYSofOITJtwWqKL6SysHVIj92NLJy9k9fjxHRYN6w0Ecdw97mvDcbkxhd5pdPabSO2ffrBzIZ1ionOJiyhi5WxTbp70oqay2z5PpC8pKUfrsg+Bfyb192CMGu21WbNm/amAVJJaiO3RO9yQPsId6XM4yqjgK6vOUzkNguWEe4UWIfJaBCtoSrR1rnJqpFmH0fY6AL1ozO2tbVQXV9JY0zAkgHq+gwBS+Xj9nw0k8Vxh7xd6ypPkexG0N3RHl+15zmj2oiwRWDIsKJ97+o+5ed6byJACmpvasTaPwFgriOz0itEU+c5p/xDq73eufa+MfzYgie7dI30nzny1HU2pE9yVuYC1zBUcZYXl+A285dXxGX8LbwV1PORvYDbhEnWFVcMCphdL+xwKIFV8o4+wlnjXTTT8jqZ2wq76YbXegNrimgHrDL1r2SUllQR4p3P9nC8a1705vMseH880Sfy8dy1zNPnGgDQabv3B0uYlZXPnwG1Of7kNNanD6MucxlTmPFbChEjmKvayKtjJXsNU9gzR5gG0Nby72vqfLZ1Uyuq+s0SSjG0qGojRCML1iA3JTxN+EUv03p9E2BA+8c5ku7IxJgZPKXsxtJNf73y/xPEYkH4JLv6OZeQlZGO8T4NjX2zm8td7UZc5io7MSQxkTqMnexKLpTcINXxER/PAwfhIqy0kyavmDsplRj9GEnnrK+oIt3pGnEEYaVYx5MVnD2nNMNI6DZVOBCvxf5xASfHo3TeGKnMk18eANBIu/YHTiD+9kEwG+9Q58NUGTozbwrWph7E/aoK/tgsxLs8kIZF/ziuIGOXl6cUUSunxahhlg7Cdqy6sIvVxInEOkcTaRxCg74vZViNS78e/c9fy59T/t8g7BqTfgsu/wTMKM/KxumaC1SUTPPTteJ7xy/nfCM9a/6vOxC03p2sQDZtYrLkuuZQ670yq3dOI0gvA8dQDPK448kTLmye6vsS5D28b9xuw6Vd7xBiQfjXWvj8Ft1Y14jTpNslusQPGNZX5ZdTFFZKlEUD+D48oUQskUTeQZO94XpYNH/nnfeHSGJDely/5K71HV2cnxXH5BE407LP0iRj7tKRUEK3qTuEtX4rtYnmZN/KJ1V+pur9bsWNA+t1Y/6/x4PqqWu6fMOXRGvM3CgLhk9SWWUnObleKd7nQlvjrO8790bk1BqQ/+hf6netXVVDBRaUTBN7zkwCpruwlZVG5lBx2J/mCNw15v6127Hdmx5CPHwPSkKwZuyE4UPOimttrVbHaYUzLi3ocT1qR9Z0NlSF5dA7i3v1n5doYkP6sX36E7y3GQo3VjRjNVydwmSX+q+7T0sumbYTFvPfJ3ksgGRgYINb9HKMxHvxWbSA6OvqNredf//pX/te/6q+jt63dv/3bv/GXv/xljMZ48Ju1gf/4j/94/4DU404xtv9fbz7uGC9+O168NxJprNH8do1mjNcDef0vDaScnBxJSCQx6BujMR78nm0gMTGR/w+WjPceIngIegAAAABJRU5ErkJggg==;" parent="1" vertex="1">
          <mxGeometry x="70" y="400" width="154.6" height="120" as="geometry" />
        </mxCell>
        <mxCell id="REkyW3odpnvt683TC7qx-3" value="" style="shape=image;verticalLabelPosition=bottom;labelBackgroundColor=default;verticalAlign=top;aspect=fixed;imageAspect=0;image=data:image/png,iVBORw0KGgoAAAANSUhEUgAAAUIAAAB0CAYAAADw+TuYAAAgAElEQVR4Ae3dCdx/xfQH8JKdkJAta3ayE5KdkqVUlCURZScUKQklUkJpRwmRkqVCoSIRWbNU1uzZ1+zd/+s9/c/T/O7v3vts9/v8nuf3O/N63efe731m5s6cmfnMOWfmnFmtyZAUSAokBVZxCqy2itc/q58USAokBZrlgPDrX/96s//+++eVNMg+sMT7wGc/+9mEuBlSYDkgPOigg5rVVlstr6RB9oEl3gde9KIXzRAGMloC4RLv7Dlp5aTd1wcSCGcO8INAeN3rXrfZZJNN8koaZB9YIn1g3XXXneLkEwhHAsKHPvShM88pYyYFkgIrnALPec5zEgjn0AqDHGEC4RwomkmSAiuQAgmEcyN+AuHc6JapkgKLkgIJhHNrlgTCudEtUyUFFiUFEgjn1iwJhHOjW6ZKCixKCiQQzq1ZEgjnRrdMlRRYlBRIIJxbsywYEH7nO99pNt1002adddZpbn3rWzfvfe97m//+97+9pf75z3/evOAFLyjx73WvezWHHnpoZ9z//Oc/zTe+8Y3mZje7WYl72GGHNX/4wx8647Zf/uIXv2he//rXl3R3vvOdm4suuqgdZer3BRdc0GyzzTbNhhtu2Hz4wx+eet9+8O03vvGNzU1vetPmbW97W3PJJZeUKO9///sb9XjJS17SXHjhhe1k5fdPf/rT5nWve11zk5vcpHnUox7V+GY7/OxnP2sOPvjg5olPfGJzm9vcppQdTe9///s3r33ta5tvfvOb7SSdv4877rhGnaX90Ic+1Pz973/vjPfb3/621EO8mVw77bRT8/3vf7/k9bnPfa7Zcsstm80226wZsnL417/+1TzlKU8pNPvoRz/a/O1vfyvpP/axjzUW7J75zGc2X/va1zrL5yW6+catbnWr5ktf+tJUvzrmmGOau93tbs3LX/7y5oc//GFv+nPOOafQ+4EPfGDpSyKix9Zbb93c+MY3bk466aRe+nzyk59sHv3oRzd3vOMdC/3/8pe/LPcdfcD/b3jDGzbPe97zml/+8pfLxRnrRQLh3Ci5YEBogN7vfvcrS/tXutKVmo033rj597//3Vvqk08+uXnAAx5Q4t/85jdv3vKWt3TG1WF33nnnZo011ihx5fuDH/ygM2775Re/+MXm9re/fUl37Wtfuzn88MPbUaZ+f/e73y1lFh+o9YXf//73ze67796o4xve8IYpIHznO9/ZqIdB/b3vfW+55EB4jz32aK53ves19773vZvTTz+9+ec//7lMvPe85z1lYItzpzvdqdluu+3KIN9+++2b+9znPmWg3f3udy+mcX/961+XSdv+AWivcpWrlLrbb9YHFBdffHGpB/oCQhPB0LX33ns3P/nJT8rnPv3pTzcPe9jDmo022qgBGH0BEJok0eyDH/xgE2UH0He9612bJzzhCQ2w6gs//vGPyzeuec1rNp///OengFB7mlR22GGH3slHnmeddVaZpO5whzs05557bvmMfoVG6n3CCSd0AqE++vCHP7wA+Itf/OJGOdqTuzaUXt1sfL7RjW5UwHqo7/fVcybvEwhnQqXl4yw4EK6++uqNDrvWWms1P/rRj5brOFFEnBou78pXvnIBkD4g/OMf/1g4AQCFe7j+9a/ffOpTn2r+8Y9/RFaddzP3UUcdVWb8LbbYopRnaLvQJIHQAAKeuA+c3WmnnbZM+Q0u3M1tb3vbcrEFBwzA81e/+lWDS8Qx7bvvvs0973nPZv31129wxl3h0ksvLRwbgFBvNMYZAt6uEEBoosC14VKHLuUBbMLKDIS4xEc+8pGFfi996UsLTdsgiAZ//vOfy+Sn3z/72c9urnOd6zTMWE2YkwgJhHOj6oID4dWvfvUiSlzxilds3ve+9y3H9aiGwfTUpz61cD8Aro8jJHJ85CMfKbMtrghA4JZwiMBhKAC2pz/96QVEDznkkGI5wZKmFq3q9JMCQpzYq171qjKgcE6nnHLKMtyHwYXDQoc111yzABzRikqgDuIBLRzZDW5wgyKSUi+0w//+978iupuM9ttvvzJIgeKb3/zm5je/+U07eskTZ4s2VBWzCSsrEH784x8vIHjLW96yednLXtacf/75y7UHOmmj8847r7SHScwERzw24VIVTSIkEM6NqgsOhDi2Aw44oDFD0uuYMduBGIUz2mqrrZrHPe5xvUBIf/W0pz2tucIVrlD0dt/61rcaJka3u93tmjPPPLNX9Max0EXRVfoOnRYgAM7Pfe5zp8TZulyTAEIi/K677toYUA95yEMaAyz0Y/FtItqb3vSmIqI9+clP7hS/Iq772WefXTg3tGvr1YAgDprofa1rXav5whe+0Bx//PEFZImBVAXtEBxhAuFlOtQAQfpIukf9oj0pBQ317QMPPLC03S677FImGnrItddeuzn22GObLn1ipJ3rPYFwbpRbcCAk/lGCP/jBDy4doms2tWBAP7jnnns22267bScQ0rFwGUbn4rLwgUMkvhG7LVQAyq6Ao9prr72KzotuR15f/epXy8wtry6RfWwgDBAExvRoONvQjdVlBlzA2sRBN9kGyjqu5z/96U8FAOm92vVXT4sWQBDwWmQAdLGIdeSRRy7DjcovgfByHWGIwwGCuLo+EEQ7HDk6U+9QPaA/qQUzYMLt08u223Q2vxMIZ0Oty+MuOBASwyiZraJRHuNcdIrnP//5Uxcdl3hmzxAJAWMdR4NvvvnmUwsdO+64Y/m/ldmrXvWqRflN9K3TxDOxmxL+Gte4RlnA8f4Zz3hGET2V6UlPetJyZbJiTJ9Gx/OIRzyiM1/5ENGVAZe6wQYbNFEuA4JoSyGPs7OaKj/KeAsfAD/KV9/lB7iU6/GPf3yj3vX/Z/MsrbIrG65ZnaUntuGGAe6znvWsZfIXRz0srNzlLndZ5n/TfRs3b/Xc5PfYxz62N61yUX8oF72bxQ1541JxT4AHvfq+RyrwDQsS+kT0J5OtNtbXTJB96S3GACcTqP4onjKQLkxAFuD8ttgnP+2BjtG2ffkqlzZXL22uXFaYqSVIAfpUX9q5vteX9BWXPk6dMcmLWmdlCCsECHGE0Vh5TzdS2QeWbh8gQa0MIYEw/RHmpJR9YM59IIFwltNA7CMk8rY5QqKqjaZ5JQ2yDyz+PkBFE1x8AuGIQGhxIkNSICmwNChgwS2BcI5tNcQRJhDOkaiZLCmwAiiQQDgPoicQzoN4mTQpsIgokEA4j8ZIIJwH8TJpUmARUSCBcB6NsVBAaNMqO2Obqxm8s6YYCv4f8aUZCpG3fLvsSofSxjfk0Vcm7/1fOcJety9PG3nlWZdFmfz2fmijrzyjPL7TVx7x5KM8LmlmW++oz1BbsH+Wb3xnuntdP2mjjL4xFLpoNleaB83c0VCZ1HUoBC1qmneVqSsP3wm6SK/e7RB51fRpxxnjdwLhPKhoF77NpDZ5sqcNZav7mDpCLq6Y6DGhY13xu9/9rrfUOhO3WaeeemqJb6N3X9ARv/3tb5fN4Mz3WLLMNOi4n/nMZ8o30IHZXFfQ0VnaKAdLl6HAUQPbVWZxYcDPVpjZnI7KaqQrqDPTL23gO8rju3UASixY0I6tLFq60JXDBdYufYOxzsfAjPTKFeWs43hG21//+telPPGtoTsrjaifcrDQsBOhy0Sw/hZLD2l5qGExI2gLNEALlkpDQT/VVzi8QAOBNRBTRrTRdkOB1yHfET/6AJt4ZdJXu2y95ac90AdNtBurpK4JSZ9g3/2JT3xiIlYrUbcEwqDEPO864aSAkNcVVgbyZ5HALKpr9lQFHIROE2VhBdAXdHw+AMW1e59LrL5823kALFYk0toe0ueP0EDgQYb1CmuLocBhBasbPvNiAAMbFhwsW0488cTlkisvboHVAgsJLrvYJtecjAEG7JTjHve4R7E4YSLmYrnBKiL8C0o3RAMgGDRjGcQrUFcAhICAhxuWHKxchi6WLkBBAOpHH310sSbiTWcosBOWlqWIyUwAMMwt2VK/8IUvHEpe2ny99dYrDkHYtQscYmgrVij8UA4FZp+sV/ikDKcg6sH2m5kjGrQD2gBg1k7oz9rKJOx9Hfxm5cHpCMsqZqrtOHX8+TwnEM6HelXahQJCwMN9V5djB8Xh5Ya7r5kAoUFsEOlkLp2/bctbVXGZRyZOBjkQAYi4gq4waSDEhQBiA4q5HN97bTDDWfE3yEsQQOXsVXmBOcAxIIGV/7N9xpH1BW7OmLcBUV5XAEBXMGADCAEKjy483vRdfDuy/RZWdiDE/ZnsmDg+6EEPKsCNXu0JCFg6g1y7iGuyCt+KXTSfz7sEwvlQr0q7EEBo4F3talcrtrMxaKoilEezus2hwUEOcYSvfOUriz2qTknEZztMDJkuEL3ZlXKcyt7UQMeB4ETaYZJAqBwAOWyGDRIccT2gcEnse5URd0HkJDYDO4ApPvDHbQJ2XCUaEoHbgciI88RBGZQ4Qnl3OaWtgZC9MxVE6MO67soRouHKDIRopc+EbTPuswsE0d6kZHJjU43OvJf3+aRst9VsfycQzpZiPfEXAggZ0gMgTg54dmkHg8n7W9ziFkXUwRX2AaEOSJwiShKJAQojfYA2XfjABz5QHAdw2eR4Aq7jH/OYxxS/h+20kwJCoMvLDvDi0KILBLmEUi+Djhdt4nGATV1OA5HuENeGZq9+9auLx5s6jmdiOgcKBiVP0ZwWEOVxc+1QAyHRDxc007CyAqEJBqgRdYnNfe0RdOIcQ9x3vOMdRURnwcUR7EyllshnJvcEwplQaQZxFgIIeVExm/Jqwp9fWzyO80oMTiLcEBAavDy08BDjfBS/peNdxe+hwEsJ0ZDbefWWhg7w7W9/+3JlmgQQ0kURSQ0Sou6Xv/zlzoUO54twDEsvyF1+rTds1y8WQej/gHuXazCTBK6cxxVKfAMUEOMO0aEOCYTL6ggtlPFcg34kFrrWLq47aMiZMLUN7zgWcyzMOUKAFDJ0vk6kn+09gXC2FOuJvxBAiAPheVoHweG0xWOAYKalV/nKV74yCITceQES+kaLJjgqbqGAo290BYObw1feonGBxD3v+KMDzvIMhXukDyCkS5S/LUd91z777FM43qHFEnojbuSJ/uhgtbStE4xvAypiLB3gdCvWxGnisvrhDtucI3+PymWxCn1808oooCW+WcCqQw2EaOX/ffX2PlaM5REcocmG5+ehdCYfHHHXYglOWJmH0gN3agO28dF2sViinZ39MpT+Fa94RZE6hhZL9EUTru+QarTFEAiigX6pT+H6qTOML2Ux8ThMK1aoa5rP5zmBcD7Uq9IuFBDqVFYSGYZbAKDbiwswWMFzIBFxDEfIN2D8v76LYxXT2R5EPQOa6GHRhF+/Om48A1jflM53+MbzPwORbs1sTx8W8d05aMVpKoeBpYx9F9Dy/bpuOALpDACcnXopO394gByXUH+vfvZd+YUfyPp/s31WV+VQT9ulpFfX9rvIF63UE62oJ4BhX729t2gQaXHcaGoBB52H0mkrkwxaiCcPNDehoTlaDaXnRBeNTCzRn+iKLYABYuA1lJ4axnfcpfN9Z8xoL6oWaXFxVrDRQr7qF3Xtu9MH0v3qEyYDKgll1e78Qfrdl3Yu7+973/uW8WLMoAeGYiGuM844o0KRcR8XzA1XXeyFAkIcCz2LBssraZB9YGn3gaHTI2t8mctzAmGCZE4S2QeWRB9IIJwFxMeGajrCNkdIbHBIU15Jg+wDS6MPxNY23HwC4UhAuLKcrzALcmTUpMCSpgB9cag0Eghn0ZRDHGEC4SwImVGTAouAAgmEc2yEBMI5Ei6TJQUWIQUSCOfYKAmEcyRcJksKLEIKJBDOsVFYifAOY9OqzaX19pmxRGMbhG1+tmGZ1cRMzJi4oLroootKGs99m2TZ1ornclj7bIL4NvhyN9V1WHydV5SFqWFfUM8od7gzs/lZ3upu47TffYF9c5SHCV9XkN6maJuk5eli9SN+e6N2V3rvlFN6beGbtf10O422iu9Md2/XT7mk6bKkie9oV5vulUUfqQNaSD8dzdFa+9Ruy9RRWvkO0dxGd9vT0CP6T5TJ99tlqsvn2f99Q931xXZQDuVTlvCg044z5u8EwjlSk/UE+1eKVR1iEkAoX6ZlPLnYwc/kbsgLi6ooD3tjaXh4MWDbwcBnmcCOV9zZmEfpoFyKsSTYc889m+k2n3IioSw6fV8wEDlY2GWXXZoTTjihRDOIbVRnl/zWt761uPXqSm9AscuW9tBDDy22snU8g1McFj4mL1YXnDQok/aTlnsxg3lo4PufAY5e3Ggdc8wxg+aBxx57bPmG7wxdUb8atLgmk4Y/wb4AwDnj0A7qVYedd965pB8CECDDHBM9aht5731bHYf6GgA78sgjCw2jD5hoeE9iZYQ+fcEEylWYcurffrcDu/Xo+3125u008/mdQDgf6lVpJwGEwIMbrljNYukw5CjAYLJ1h/WBNFxbcQHWDoAHuLCSCI8j/AfOJBhcysRygZXCdAOGRYqyAKK+gAPabbfdikUIQBOYawFH32Gx0MV5AnmmhFxwMamjrqi5KPRg8sjNFtMwZWEVwUGGNCwv2GOzvjDoDL4+MPR9ji3UhQsq3xviCtk+i8uaw3f6LuaBTOlq87SwqDj++OP7SFa4JaZ8LGQ4QqgDixHfNtn1BeCD1iyP0D4CDkxaFiddnFrEs2WMjb3yH3zwweU1LpgZnjpzxNAVTO4AkCUKKyBmju2+pw3YNbPG0ZdZ4gzRous7s32XQDhbivXEnyQQMmECCAYvRwV9gW2yjqkTA7k+IGRXysgeCHDWCSB0vJkE3AMTO2ZezOWYuTHW7wuTAkIc0X777VdMD6kocCc1mOB6OarggYd5FhMzYGdyCVFYnXEvQIoHIUAaYl67PtQfAIvLNSaF6Mt3Ys3J1WkCCLfbbrviaZq36b6LfXiUSR4rKxAS5UkhwJeJH2/bbRBUf+1I+gGoYRqI9rj7IXVETf/ZPicQzpZiPfEnCYQ4LzadbFx5u+njWvbee+/SyXA8OL0uIJQWpwXI+O4zm+MqGNL731BHM1g5mGUnrGMCEQCCC+hLNwkgBD42KgN9dr1EwxoENRHRjfdktrE4yi4VQTQlrhIY8tjDk3Y7oAsQY5ML/HEngJBDiz6uMIBwLvrilQ0I9Q3cJTFeH+ZmjkOFvkmE1EMVpG05/QBSa6+9dlF79PX9dpvN9ncC4Wwp1hN/kkAItHA2DPDNpLVXlCiOzub/XOgzcGfw3wWE9FxEE4MaR4Wb0zkBAdFmqKMRtTbffPMySx933HGFw5JW2cz2XWFsIFRP7s6IVoDQUQJtEU4c+jPfJgrTNQ4FoKkOJpwjjjhiuajEOXo7IicxUl3VG0dN9MaptEMC4WWisbbQp0y0VAq4dz4k+/SP4hOXtS3nEPS3+jHHGvprzTm3aT6f3wmE86FelXbSQLjjjjuWFWoeTLoWNxwMxEwIV6gsfUDIhxzA5DXGgg9Q5RKLt5R3vetdnYM6qklcwW3yD8g9lPT0OET2ONsj4sZ9bCB0XgcQBHAWJIjIBk8dADqOUZ3UbbrBY6A6kImo26W4J2LjKk0eFgPoIblco4LATXZNAgmElwGhSSpAkFclHDdxuN1m0X4Wa+h0TTKkH5w+ERoHTs87XVtGPrO9JxDOlmI98ScNhAAOAAI7HaQdrKz5H5HDql8XEOqUFOw6GYecRBOLALg7ekgOVfvEFfEowOULjKweW1wgKgMconJXCCDEhfJF2HXp+Hz3cZ81tFgSIKie9H30eV0Diut5NCLC4yJmEnAo6t4eaN5ZyaY+4F7Mb3XnYJbYbRLoWhEPIOROravO8Y5eUvqaEw/RWB0iXvuOQ91qq60GF0uI5e108Vt/Up++xRL9wYJaxG/f7RjQX3BufYslJgjqE9ycSQQnOASC2smiGv+I3Ko5BEv72uLDTRhdr7bo4yZn0s59cRII+ygzy/eTBEKcB7GNiOyZ/o+uqr7Ct5xZk9hmcQVo8SEX8ehcgI3ZlSLae+9wWFYKrdD5HfHrO05UGgNEHv7nXeQHKOr48ay88lYmdei66H+ITcqsHtLW5TKQfEs835enMveV1eBUVvGsOEZZ5nL3DYCKZsoReVAleOcb9LfxPu4mG/VWr646xzv0a6c34KXVzhGvfde2JiD0iLaMb3s3G5qja6RVFmld7W/Wv7WTicABXcBUen1NfXxf/aPPyEs87RLf6bvrv+qFBqGTxf17Jx+TYF+79+U5k/fqEvXW3iSfSVwrnRuuNk5OEgijgfK+tP3cZftl+yUQtpFzBr/b+whzIOVAyj6wxPtAe9wfdNBBU6yoTcCTCFb76o5js+ikwkJxhFbdbN/IK2mQfWBp9AF64ikcagNQAmGbIsv/7uIIbWDOkBRICiwdCli8TCCcR3slEM6DeJk0KbBIKJBAOM+GSCCcJwEzeVJgEVAggXCejZBAOE8CZvKkwCKgQALhPBuBlQNbS3vWQscwpo7QJmkmTC6WItNtdhWfHaj4F1xwQadFhSrbHMy6g0WGuF2G9X2ksembgwNpp1vcYhrHRJB1TN9GcN/xP+WQZ71x2cZr7/scLUjLioSnFWmHPP+gDfNFdJSnu43AtTecvjrHe+0t3fnnn7+c7XTEcWdNE2X3reku7rEiaBdOHtC2bZoYcdzRKdqvpi1PQWjOC1H9vk7rWd7K1faAg0be8YpkY3pf0CbSo0UEm92jrkPftpFbOt/pckVmk7byRf1Ys7Q30sc3x7gnEM6TigYXn3S1K64xgdBg2mabbcrFlZMBUgNFu/i81uyxxx4lPksW3m66gp3/rFVYm8hfHWZqDWCA8mFoFX7XXXctg63LesR3rZqy4GD6Z4dAXzDolIM1TT34+OLzXr26Qvj84wCAmRjzunYw6FhM8IXIV+G2225b8nRnTXP00UcXcJsJIB5wwAHFkQNzSoDYNzgBUZQ92m/oDjwiMCNUH9/qMieMeOynoy4mnAi8H+mP6jXkfBUAKVPbRdghhxxS3vGVOTQBsQ+XXh+IYELl+sv7vm9zMaeMfE7uvvvuxXQy0sdd3YCgPiYv/aieLCLeWPcZA+H6669fzGmY1Ix5McMKTsp9Og5jPhWfxPaZKA/zpqjHmEDITCzyZQHBWWaXA4G6HGF5wHPNySefHP+augMtnXGTTTYp1iSsLxjNDwFVJNbRtT8LBpYqrCeAcx8QhiccPhFxX30BJ6eerAdqToIZl/eM/NvBJAT4uCtjnaIz19yFMuGOmMhpE1YUTOPYJG+66abFBpvPQlYQJgT2sm0POfU3DWzlYZHBwmbIJRh7cR5ctJk03KINXbVHHflqQzbYF154YV2EZZ5NGGHhUsczETKb5E6rpscyiZumYfuOtqxj6rD99tuXd4AYd9oXuHuTnhuuCCYTtPEeZ9kOJiVOONjSq+Nee+3V2e+0gz6pP3Crpo2poSYVZgyEKrYQVwLhsk0dQAisDED2nACgC3i8x6kwdWKK1weEBhAOS3vaP8UUyyAlpvRxOFEqYIYbZI4HSJm0sWnt41InBYQG3KmnnlrccgUI1h5/0EccNtLKyN7YoGMni04C4OeIAgfDLIwtNccOfYEDCfUOmuFUcH5dIYAQyPIyjbZDV83trKxAiLtEQ32Nazi21F2Tr76Ew0U78fjj1EdPP/30GUstXW0y9C6BcIg6s/jfpDlCMz8vzexmictdXOFZZ51VgBLnw2a0DwgNOnpN4MpZqtnWrMslfj0g29XXQQEF7oqEgCMADOxXpesC50kAIW6B+BhuudqcoHIDe/TAubKz5fKrT9/GTRfnCbgoonItmstLvUIMxT1xKmAwy9dzO740AYQcBQy582/T2O+VEQhNPsRhoMY+Wf/rAkH1J3Xg9NlD8yBkMgOEJuAhVUEXLWf6bhAInWlgQE3yqhcZcCjJES7bdMEREkFtcNc5eBLpGtTAmC9EIhXxrwsIgRmRBYdE7AACzlAxqDkxtejQF3Tmww8/vHBYuCGztm/Jhz6pCxDGBkKDBKjhRjkicJ5Il/iHG1RGYppBN+T0VX3pS7mgkobHnjoEzXDajPyJ8eoFOOnHak400iUQXi4am7hwxVQFOG++Kvv0h+hHHCeem/S1C10snOCWDkevPcYOg0A49se68kOQWuROIFyWSgGEPLngLIAOx65tr8tAiMt54p1Fkj4g1CmBFoDgzt5vA5kYQueH0+oTj4GmGZq4wjmqhQocpQ6Lq+ziCgMILZjESqtvti96Rv1A/fp0hOpIPKIe4M3FgkIXh4CDw23ITz2Vu69OQW2LNbhdK+3toDzcXSkbl1X6rHLQ/eFwiOjtwRlAiHOm/2vXt/5tkapOHxzhFltsUUCgjls/EzWVST27dITo432dpn4O9UifjhBg6Rt1mvoZh+fbQzpCdeOazsRrMucbckjviA7aQJn0R5Otd9QR6ooJmG5Sa7ffTH4nEM6ESjOIM2nRGPgAHg5XcYUGdy0eG5jENaIdTr4PCA14oESJ76Cj4OLCRXsfhwNcACjpwIE+wYXJj9hiQBhYkV+QLIBQ2fgxpBfquij25dEHhL595plnFrFcPH4XowzxrbjjGk855ZSSHy6ka+AZXMCx66pBSb3RHTcCVInbsbrOJx/XVThOiwB1CCDENeJau+oc7yw+2R4SIYAQhwp4I1777pgDZUKPLiC0IGHlup0ufltll7YPCC0o8ZcY8dv3WHzsA0JMjXbjost3+KrsaouotztwN8lSBVlgi/5EasEMYALoWrXLmCGBcCRqLgQQGuDO/sCBGSwGaAROQHEnQJDj1z4gpF+k1zPb4ppi0Fs0ALZEa1tN2kEHtthgwWaHHXaY6ogAwPYLHd3AbOsYAwjpIw1aZe+6YkD3AaEBjYM1CfgWh6Xq2RVqIOSduwaZiI/7s52GU9j64gG8XgAxEHF0yo8DxKHEILSqSmQzObW39wQQKutQvdHCNhL7MiMEED+KlXwAAA2YSURBVE5HM2nl7+oCwunSB837gBCth8oebdEHhMYE+iiHMlqZB2JDwcowsNM/TRAx2XvPZ6Gy2kpTSw1D+c30fwmEM6XUNPEWAghxL/R7VoR5PsaNCcDH7G3xAIjhDruAECDYfmNhhC4MCMag1rEcRWompgeMldWoNpf/xBNcCn1PBNyRQa+j66iAog4BhDo3kMEhdF0Gvzz6gBAHaxAAXSCIE7PnsAaQ+G4NhOLaKtQODrOiDrCiXF88Otf1A/SAStlwfvXkY/uJhSN6r/YZwQGEJhcex7vqHO/s9azzDSAE/J4jXvtO5EQHZesCQmfXmDjb6eJ39Nk+IMR12+oS8dt33KJv9wEhnSoVBikjdNK29rT7SLQNvbfzuPVBdNMno3/q+zhY4nWf1BL5zOWeQDgXqnWkiU6lY0xiH6GOoVPoHJtttlnh6ugMzZhASmeMTtYHhBZCDA5AaMuIQVZfxFedkG6qvRHbgMJJAg+cYaTDVTl7xKyPQwF29aAOICSO0/3o7F3XdDpCQOhQJgPenkIr6MpDFdAG7ZkAIa7PqrftHC4rk/YYcqFGZRDBZMMbsnYl2tNRRd0tXuEScUY2MNf6xQBCOkLcZ1ed412fjnDLLbcs3GnEa99NgCaOPiAEHNq8nS5+6z/S9gEhKYP6IeK37xYypB8CQpuz6XFt7kZbqgLv5NUOFqlIFcCdZBJ0jruFOW1O1Lbnc8yQQDgSNRcCCBUV8OHYzLZ0KXQqgIguzAD2/y4g1PEACJEDaOlQOJn6Ajb+x5U7DifED1wXPZf/GXhWmOt0OrcB4XLcZr2KGkA43w3Vtk4Y1OoH+HBZxC6ruAZKHcQJYFVfAIWjqIO6WVmWl8uilEmiBkLvbfgPERJd6np7NnGoNx1ifWBXAOGqvH3GpAHc0F4/ZdVjzycdM7G3HVjXmDj0M1x6m9axkd2ES984tPLcznu63wmE01Fohv9fKCAkzgIEQEbnYtHE0aDE4jgAvgsIzexEGWAnPiDpunCF4uC0wjJApzVD2y+oM7fTEbd1TKBAFDrjjDOmQHQsICSuhuJckyibhQTcDKfB6hwB52xlkTgOxJTXQBwKOGC6vhoIcTK4MgOPXpROsF13kxCOCJeNI4/vJBCuVixX6glIX7XApM303Xp/Je4W1xib39t0jt/aw+KcfGylGSskEI5EyYUCQoOcKAX4bEw98MADy+C1ohf737qAUKfBtZhliTT0hV2X/Jg+AT76GmIuMAO8Op/O3JXOt+kl6S9t3wn95VhA2Daxw/VZwbVtB9dH51lvvUIj5TdocMviBofb1eQ4QjrQAELp6VvtVbQp22IIDqRddwtO6osrBrzEYCGB8PJ9hEFvbUYdYbKl66NqYAIpUHnYO4jeJuw2neO3rUr6sfS2bg21aXx3JvcEwplQaQZxFgoIoygAyyDHjVikABTBMbWBEJi9+93vLjOxTji0hYEYScdpZraPzJYVuhmgi+uLb0Q56jsRlfjCftcmWGFSQChvoqu9bBY4gBVulbgr4JxxZwYb8KdTtDp8zjnnTOkw0QWwcwhBLCa2ycuGbQNPfMBuAqB3DMV9+UD1x97LjTbaqOgScS5CAKG2MfjtoRy6cOy+IaDjymprjFPHWbN+Ukf7M7UDSxK/bc+q7a4LQao/4lok0z/bq+1VtFk/JhDOmmTdCRYaCCn7KfEplkOpHiVrAyFwI9rRcbELHgpmWFtVxJUv3Z7BbPW1a1tNnRfdII6KiAx4AdEkgdC3ia9Wc4EYJbrFmgiAixWIwWZF3Io3rtXKs8UNG9DpNC14qCPAV27cbUwIgB3Y9oGgb5lYDEp6W3kT2wMIqQqAsAWuoUsZwynFygyE6IW2dM64P9ZP2oyKAa3thgB2Q0Eb0Q3Tv5pkxggJhGNQsWnKIduxYDDmqjHAY05m0NbB4gfLAdtmdIxacUzpbIsBHRq9Ie5Mx2MVEqJbnVf72SAGFLZPuOOWdNT2HsF2Or8BLXGV3tA2CdsvbLw1UYS43JWOiKSegKnmOnVQ73FyXYG4xV0TnSagec1rXjOlIoj4ABnHwZuJCUE8ebqI1EQx+iniLy7T9z3TGfo/2g4Boe+wOVZPXCn3VNogyh7fGrrjPkMny2OQ9qbuqBeeoj5xV3e0lm9tYaMudgVY0e+z55WH70mL462DrUXe2a/X3ihex8O5SW+yjICr1Se9D1VN/C/u1A76GPqgsb6q36C1/jJdIEbj9JXRAiFrl/mGBML5UvD/00+KIzSIiaddQGBzNN2XwaJzRbBvDjhQRuNWDGR5GKBDHbtObyBLE5cFmpkEHBjOEZCY2W2EBb46b9eWicjT/3zLVqDY5O1/FjG8J6r2BWl9Vzzf6hv8aGkF3OQQ9bLBt22yBQiJqpFf33fr9wa9sspbWnlG2eNbQ3cieoj1JgX5WPmOd/W34hmd0Eu+NW3pSoFUbJ2J+O27vKXVh+pAhPcOh1r3qzqOZ31Lem0dweIIfav3IerH/+q7vmEfpnhxqXPoDOu47Wf5YhCkw12ulEBoRo8VorHv9D/BteECxgyTAsIxy5h5JQWSAt0UWHQcYQDVpO8JhN0dIt8mBVZFCiQQjtTqyRGORMjMJimwAiiwwoGQ3oZh/EJctQVEcoQroLflJ5MCi5QCKxwIF5IudrOHyJ1AuJCUz28lBRY3BRIIR2qfFI1HImRmkxRYARRIIByJ6AmEIxEys0kKrAAKJBCORPQEwpEImdkkBVYABRIIRyJ6AuFIhMxskgIrgAIJhCMRPYFwJELOIRume0zc+L/jnWQosEZgesa2d7qLqVod2LVydsFkcchqgrWKvB1/kGFpUCCBcKR2SiAciZBzyAb4McJntL/BBhtM+QTsyorLLF5OxJ3ucgZMHdgSc0bBvnXIMQD3UPLeeuut6+T5vIgpkEA4UuMkEI5EyFlmgxvk3p2XF8cZOOlsyCMJ5wxcdnG8wIQT19d3nXjiicuUhvMJHrp57x4CQpypbVr8E2ZYGhRIIBypnRIIRyLkLLPhcBaocbGF2+Ndm/uwvhBA6M5gn0edvosnmjokENbUWLmeEwhHas8EwpEIOYts+E7ky45fRuDH6w3HGjhD3ly6QgDh7rvv3nuaWlc67xII+yiz9N8nEI7UhgmEIxFyFtlwqcUnI+/ZvGnzyeegeGdicAjbFRIIu6iS7xIIR+oDCYQjEXIW2ZxyyinlCM4NN9ywHORjJdc5JTxFOw2NH8bat6GsAwg5AXVCnfhdl8Pj+VKsQ3CEnK9ape5K512cg5w6wpp6i/t5lQVChxPttNNOo11OUgs75jE9VC/u7rPiSkevhwt0tCjP26HPwyU6l8WZFo7X5MW5DgGE6667bjmgCoh2XUCvvegSQOi8Dd/oSuedVelcLKmpvvifV1kgDNCaxD2BcPIdP1zpO3DevsAIvHMDSGe5OIOkvd8vgNB5F7a3OGOk63LMAa6wDgGEzj/hwKMrnXdAMoGwptzif04g/P+DyccExATCyXf8o446qhzWZK+fM1usHrssmBx++OHlkHDbZBw5UJ+BEkDonA2u4XGQXZfzPNou/AMIncJmU3VXOu9s50kgnHwfGPMLqxQQ2ujqQKJJXE7jCjBNIByziy6fl7My6OlwffYN0sVtscUWU9fGG29c2mL11Vdvdtttt2X2/AUQ5qrx8nRdld+sUkA4yYaOTbTAMIFwkpRuyrnDHPk65BtH6LjM9sXCRFs4Yxl351AhIYFwsm2zVHNPIByp5RIIRyLkNNk4VW3fffctewcdG2nl2Glv9UVsdVykhRRgaNEkTjpLIJyGwKvovxMIR2r4BMKRCDlNNo6qdGbvWmut1eyxxx5TANdO5qhKnXuNNdYoiyJxpnIAoft0liXM6OrFltARzsXEDkfqKFV7HR1PUW/r8d4xlt7Xq9y+72hQC0AZJkuBBMKR6JtAOBIhp8nG/j3WI3SyJ510Um9sCyRWfddcc82yr9AqM5AJIAxbY4sufdexxx5bFkXiI/MBQsDMG40N37jY+rxgHCtdpvrU506ffvrpZXtX2wtOlCfv41EggXAkWiYQjkTIgWxwVc69tgfQHtDg8vqSiA8w11577eIWC2fFHnm99dab1vMM7zHiHXHEEVPZ8z6zzjrrzMn7jBVo1i70mvvvv/8yB7LvuuuuZe/hPvvs0zgoPsJBBx1UyrnddtvFq7xPiAIJhCMRNoFwJEIOZHPxxRc3PMLw9Xf22WcPxLzsX5deemlz2mmnNQCF6yxgxB/hYYcdNq0vQt8Q79xzz536znz8EV5yySXl2zze2OJTb+nB+dkLedZZZxUHEPFBXKxy4CAzTJYCCYQj0TeBcCRCZjZJgRVAgQTCkYieQDgSITObpMAKoEAC4UhETyAciZCZTVJgBVAggXAkoicQjkTIzCYpsAIokEA4EtETCEciZGaTFFgBFEggHInoNRDaesEtV15Jg+wDS6MP8HIevgJWGwkTVslsaiCcIugEPNtk3qtd3mGTvkmLSfSBVRLBRqp0AmECVE5SK0kfGAkTVslszjvvvLJx1+bdvJIG2QeWbh9I0XiVhPCsdFIgKVBTIIGwpkY+JwWSAqskBRIIV8lmz0onBZICNQUSCGtq5HNSICmwSlIggXCVbPasdFIgKVBT4P8ASuXE/DMcZcsAAAAASUVORK5CYII=;" parent="1" vertex="1">
          <mxGeometry x="70" y="190" width="190" height="68.45" as="geometry" />
        </mxCell>
        <mxCell id="REkyW3odpnvt683TC7qx-13" value="" style="edgeStyle=orthogonalEdgeStyle;rounded=0;orthogonalLoop=1;jettySize=auto;html=1;" parent="1" source="REkyW3odpnvt683TC7qx-4" target="REkyW3odpnvt683TC7qx-12" edge="1">
          <mxGeometry relative="1" as="geometry" />
        </mxCell>
        <mxCell id="REkyW3odpnvt683TC7qx-95" value="" style="edgeStyle=orthogonalEdgeStyle;rounded=0;orthogonalLoop=1;jettySize=auto;html=1;" parent="1" source="REkyW3odpnvt683TC7qx-4" target="REkyW3odpnvt683TC7qx-94" edge="1">
          <mxGeometry relative="1" as="geometry" />
        </mxCell>
        <mxCell id="REkyW3odpnvt683TC7qx-4" value="&lt;p class=&quot;MsoNormal&quot;&gt;&lt;font style=&quot;font-size: 18px;&quot; face=&quot;Calibri&quot;&gt;&lt;b&gt;Protein Structure-Sequence&amp;nbsp; encoder&lt;/b&gt;&lt;/font&gt;&lt;/p&gt;" style="shape=trapezoid;perimeter=trapezoidPerimeter;whiteSpace=wrap;html=1;fixedSize=1;direction=south;fillColor=#d5e8d4;strokeColor=#82b366;" parent="1" vertex="1">
          <mxGeometry x="370" y="290" width="110" height="190" as="geometry" />
        </mxCell>
        <mxCell id="REkyW3odpnvt683TC7qx-9" value="" style="edgeStyle=orthogonalEdgeStyle;rounded=0;orthogonalLoop=1;jettySize=auto;html=1;" parent="1" source="REkyW3odpnvt683TC7qx-8" target="REkyW3odpnvt683TC7qx-4" edge="1">
          <mxGeometry relative="1" as="geometry" />
        </mxCell>
        <mxCell id="REkyW3odpnvt683TC7qx-8" value="" style="ellipse;whiteSpace=wrap;html=1;aspect=fixed;fillColor=#fff2cc;strokeColor=#d6b656;" parent="1" vertex="1">
          <mxGeometry x="290" y="370" width="30" height="30" as="geometry" />
        </mxCell>
        <mxCell id="REkyW3odpnvt683TC7qx-10" value="" style="endArrow=none;html=1;rounded=0;entryX=0.5;entryY=0;entryDx=0;entryDy=0;exitX=1;exitY=0.5;exitDx=0;exitDy=0;" parent="1" source="REkyW3odpnvt683TC7qx-91" target="REkyW3odpnvt683TC7qx-8" edge="1">
          <mxGeometry width="50" height="50" relative="1" as="geometry">
            <mxPoint x="305" y="270" as="sourcePoint" />
            <mxPoint x="330" y="190" as="targetPoint" />
            <Array as="points">
              <mxPoint x="305" y="326" />
            </Array>
          </mxGeometry>
        </mxCell>
        <mxCell id="REkyW3odpnvt683TC7qx-11" value="" style="endArrow=none;html=1;rounded=0;entryX=0.5;entryY=1;entryDx=0;entryDy=0;" parent="1" target="REkyW3odpnvt683TC7qx-8" edge="1">
          <mxGeometry width="50" height="50" relative="1" as="geometry">
            <mxPoint x="230" y="470" as="sourcePoint" />
            <mxPoint x="320" y="490" as="targetPoint" />
            <Array as="points">
              <mxPoint x="305" y="470" />
            </Array>
          </mxGeometry>
        </mxCell>
        <mxCell id="REkyW3odpnvt683TC7qx-12" value="&lt;font style=&quot;font-size: 18px;&quot;&gt;&lt;b&gt;Alignment module&lt;/b&gt;&lt;/font&gt;" style="rounded=0;whiteSpace=wrap;html=1;direction=south;fillColor=#d5e8d4;strokeColor=#82b366;" parent="1" vertex="1">
          <mxGeometry x="540" y="307.5" width="100" height="155" as="geometry" />
        </mxCell>
        <mxCell id="REkyW3odpnvt683TC7qx-14" value="&lt;font style=&quot;font-size: 16px;&quot;&gt;Protein Structures&lt;/font&gt;" style="text;html=1;strokeColor=none;fillColor=none;align=center;verticalAlign=middle;whiteSpace=wrap;rounded=0;" parent="1" vertex="1">
          <mxGeometry x="98.75" y="525" width="152.5" height="20" as="geometry" />
        </mxCell>
        <mxCell id="REkyW3odpnvt683TC7qx-15" value="&lt;font style=&quot;font-size: 16px;&quot;&gt;Amino Acid Sequences&lt;/font&gt;" style="text;html=1;strokeColor=none;fillColor=none;align=center;verticalAlign=middle;whiteSpace=wrap;rounded=0;" parent="1" vertex="1">
          <mxGeometry x="90" y="258.45" width="170" height="20" as="geometry" />
        </mxCell>
        <mxCell id="REkyW3odpnvt683TC7qx-16" value="&lt;font style=&quot;font-size: 18px;&quot;&gt;&lt;b&gt;Protein Language Model&lt;br&gt;(Pretrained)&lt;/b&gt;&lt;/font&gt;" style="rounded=0;whiteSpace=wrap;html=1;fillColor=#e1d5e7;strokeColor=#9673a6;" parent="1" vertex="1">
          <mxGeometry x="370" y="90" width="235" height="110" as="geometry" />
        </mxCell>
        <mxCell id="REkyW3odpnvt683TC7qx-18" value="" style="endArrow=classic;html=1;rounded=0;exitX=0.5;exitY=0;exitDx=0;exitDy=0;entryX=0;entryY=0.5;entryDx=0;entryDy=0;" parent="1" source="REkyW3odpnvt683TC7qx-3" target="REkyW3odpnvt683TC7qx-16" edge="1">
          <mxGeometry width="50" height="50" relative="1" as="geometry">
            <mxPoint x="160" y="270" as="sourcePoint" />
            <mxPoint x="50" y="90" as="targetPoint" />
            <Array as="points">
              <mxPoint x="165" y="145" />
            </Array>
          </mxGeometry>
        </mxCell>
        <mxCell id="REkyW3odpnvt683TC7qx-19" value="&lt;font style=&quot;&quot;&gt;&lt;b style=&quot;&quot;&gt;&lt;span style=&quot;font-size: 18px;&quot;&gt;A&lt;/span&gt;&lt;sub style=&quot;&quot;&gt;&lt;font style=&quot;font-size: 12.5px;&quot;&gt;1&lt;/font&gt;&lt;/sub&gt;&lt;/b&gt;&lt;/font&gt;" style="whiteSpace=wrap;html=1;aspect=fixed;fillColor=#e1d5e7;strokeColor=#9673a6;" parent="1" vertex="1">
          <mxGeometry x="790" y="190" width="50" height="50" as="geometry" />
        </mxCell>
        <mxCell id="REkyW3odpnvt683TC7qx-20" value="&lt;b style=&quot;border-color: var(--border-color); font-size: 18px;&quot;&gt;A&lt;/b&gt;&lt;b style=&quot;border-color: var(--border-color); font-size: 15px;&quot;&gt;&lt;sub&gt;2&lt;/sub&gt;&lt;/b&gt;" style="whiteSpace=wrap;html=1;aspect=fixed;fillColor=#e1d5e7;strokeColor=#9673a6;" parent="1" vertex="1">
          <mxGeometry x="840" y="190" width="50" height="50" as="geometry" />
        </mxCell>
        <mxCell id="REkyW3odpnvt683TC7qx-21" value="&lt;b style=&quot;border-color: var(--border-color); font-size: 18px;&quot;&gt;A&lt;/b&gt;&lt;b style=&quot;border-color: var(--border-color); font-size: 15px;&quot;&gt;&lt;sub&gt;3&lt;/sub&gt;&lt;/b&gt;" style="whiteSpace=wrap;html=1;aspect=fixed;fillColor=#e1d5e7;strokeColor=#9673a6;" parent="1" vertex="1">
          <mxGeometry x="890" y="190" width="50" height="50" as="geometry" />
        </mxCell>
        <mxCell id="REkyW3odpnvt683TC7qx-24" value="&lt;font style=&quot;font-size: 18px;&quot;&gt;&lt;b&gt;...&lt;/b&gt;&lt;/font&gt;" style="whiteSpace=wrap;html=1;aspect=fixed;fillColor=#e1d5e7;strokeColor=#9673a6;" parent="1" vertex="1">
          <mxGeometry x="940" y="190" width="50" height="50" as="geometry" />
        </mxCell>
        <mxCell id="REkyW3odpnvt683TC7qx-25" value="&lt;b style=&quot;border-color: var(--border-color); font-size: 18px;&quot;&gt;A&lt;/b&gt;&lt;b style=&quot;border-color: var(--border-color); font-size: 15px;&quot;&gt;&lt;sub&gt;N&lt;/sub&gt;&lt;/b&gt;" style="whiteSpace=wrap;html=1;aspect=fixed;fillColor=#e1d5e7;strokeColor=#9673a6;" parent="1" vertex="1">
          <mxGeometry x="990" y="190" width="50" height="50" as="geometry" />
        </mxCell>
        <mxCell id="REkyW3odpnvt683TC7qx-28" value="" style="endArrow=classic;html=1;rounded=0;entryX=0.5;entryY=0;entryDx=0;entryDy=0;perimeterSpacing=0;exitX=1;exitY=0.5;exitDx=0;exitDy=0;" parent="1" source="REkyW3odpnvt683TC7qx-16" target="REkyW3odpnvt683TC7qx-19" edge="1">
          <mxGeometry width="50" height="50" relative="1" as="geometry">
            <mxPoint x="610" y="150" as="sourcePoint" />
            <mxPoint x="750" y="60" as="targetPoint" />
            <Array as="points">
              <mxPoint x="815" y="145" />
            </Array>
          </mxGeometry>
        </mxCell>
        <mxCell id="REkyW3odpnvt683TC7qx-29" value="" style="endArrow=classic;html=1;rounded=0;entryX=0.5;entryY=0;entryDx=0;entryDy=0;" parent="1" target="REkyW3odpnvt683TC7qx-25" edge="1">
          <mxGeometry width="50" height="50" relative="1" as="geometry">
            <mxPoint x="810" y="145" as="sourcePoint" />
            <mxPoint x="860" y="40" as="targetPoint" />
            <Array as="points">
              <mxPoint x="1015" y="145" />
            </Array>
          </mxGeometry>
        </mxCell>
        <mxCell id="REkyW3odpnvt683TC7qx-30" value="" style="endArrow=classic;html=1;rounded=0;entryX=0.5;entryY=0;entryDx=0;entryDy=0;" parent="1" target="REkyW3odpnvt683TC7qx-20" edge="1">
          <mxGeometry width="50" height="50" relative="1" as="geometry">
            <mxPoint x="865" y="145" as="sourcePoint" />
            <mxPoint x="800" y="60" as="targetPoint" />
          </mxGeometry>
        </mxCell>
        <mxCell id="REkyW3odpnvt683TC7qx-31" value="" style="endArrow=classic;html=1;rounded=0;entryX=0.5;entryY=0;entryDx=0;entryDy=0;" parent="1" target="REkyW3odpnvt683TC7qx-21" edge="1">
          <mxGeometry width="50" height="50" relative="1" as="geometry">
            <mxPoint x="915" y="145" as="sourcePoint" />
            <mxPoint x="875" y="200" as="targetPoint" />
            <Array as="points">
              <mxPoint x="915" y="160" />
            </Array>
          </mxGeometry>
        </mxCell>
        <mxCell id="REkyW3odpnvt683TC7qx-32" value="" style="endArrow=classic;html=1;rounded=0;entryX=0.5;entryY=0;entryDx=0;entryDy=0;" parent="1" target="REkyW3odpnvt683TC7qx-24" edge="1">
          <mxGeometry width="50" height="50" relative="1" as="geometry">
            <mxPoint x="965" y="145" as="sourcePoint" />
            <mxPoint x="960" y="350" as="targetPoint" />
          </mxGeometry>
        </mxCell>
        <mxCell id="REkyW3odpnvt683TC7qx-33" value="&lt;b style=&quot;&quot;&gt;&lt;span style=&quot;font-size: 18px;&quot;&gt;P&lt;/span&gt;&lt;sub style=&quot;&quot;&gt;&lt;font style=&quot;font-size: 12.5px;&quot;&gt;1&lt;/font&gt;&lt;/sub&gt;&lt;/b&gt;" style="whiteSpace=wrap;html=1;aspect=fixed;fillColor=#d5e8d4;strokeColor=#82b366;flipV=1;" parent="1" vertex="1">
          <mxGeometry x="720" y="260.78000000000003" width="50" height="50" as="geometry" />
        </mxCell>
        <mxCell id="REkyW3odpnvt683TC7qx-34" value="&lt;b style=&quot;&quot;&gt;&lt;span style=&quot;font-size: 18px;&quot;&gt;P&lt;/span&gt;&lt;sub style=&quot;&quot;&gt;&lt;font style=&quot;font-size: 12.5px;&quot;&gt;2&lt;/font&gt;&lt;/sub&gt;&lt;/b&gt;" style="whiteSpace=wrap;html=1;aspect=fixed;fillColor=#d5e8d4;strokeColor=#82b366;flipV=1;" parent="1" vertex="1">
          <mxGeometry x="720" y="309.23" width="50" height="50" as="geometry" />
        </mxCell>
        <mxCell id="REkyW3odpnvt683TC7qx-35" value="&lt;b style=&quot;&quot;&gt;&lt;span style=&quot;font-size: 18px;&quot;&gt;P&lt;/span&gt;&lt;sub style=&quot;&quot;&gt;&lt;font style=&quot;font-size: 12.5px;&quot;&gt;3&lt;/font&gt;&lt;/sub&gt;&lt;/b&gt;" style="whiteSpace=wrap;html=1;aspect=fixed;fillColor=#d5e8d4;strokeColor=#82b366;flipV=1;" parent="1" vertex="1">
          <mxGeometry x="720" y="359.23" width="50" height="50" as="geometry" />
        </mxCell>
        <mxCell id="REkyW3odpnvt683TC7qx-36" value="&lt;font style=&quot;font-size: 18px;&quot;&gt;&lt;b&gt;...&lt;/b&gt;&lt;/font&gt;" style="whiteSpace=wrap;html=1;aspect=fixed;fillColor=#d5e8d4;strokeColor=#82b366;flipV=1;" parent="1" vertex="1">
          <mxGeometry x="720" y="409.23" width="50" height="50" as="geometry" />
        </mxCell>
        <mxCell id="REkyW3odpnvt683TC7qx-37" value="&lt;b style=&quot;&quot;&gt;&lt;span style=&quot;font-size: 18px;&quot;&gt;P&lt;/span&gt;&lt;sub style=&quot;&quot;&gt;&lt;font style=&quot;font-size: 12.5px;&quot;&gt;N&lt;/font&gt;&lt;/sub&gt;&lt;/b&gt;" style="whiteSpace=wrap;html=1;aspect=fixed;fillColor=#d5e8d4;strokeColor=#82b366;flipV=1;" parent="1" vertex="1">
          <mxGeometry x="720" y="459.23" width="50" height="50" as="geometry" />
        </mxCell>
        <mxCell id="REkyW3odpnvt683TC7qx-39" value="" style="endArrow=classic;html=1;rounded=0;exitX=0.5;exitY=0.002;exitDx=0;exitDy=0;entryX=0;entryY=0.5;entryDx=0;entryDy=0;exitPerimeter=0;" parent="1" source="REkyW3odpnvt683TC7qx-12" target="REkyW3odpnvt683TC7qx-35" edge="1">
          <mxGeometry width="50" height="50" relative="1" as="geometry">
            <mxPoint x="610" y="580" as="sourcePoint" />
            <mxPoint x="660" y="530" as="targetPoint" />
            <Array as="points" />
          </mxGeometry>
        </mxCell>
        <mxCell id="REkyW3odpnvt683TC7qx-40" value="" style="endArrow=classic;html=1;rounded=0;entryX=0;entryY=0.5;entryDx=0;entryDy=0;" parent="1" target="REkyW3odpnvt683TC7qx-33" edge="1">
          <mxGeometry width="50" height="50" relative="1" as="geometry">
            <mxPoint x="670" y="385" as="sourcePoint" />
            <mxPoint x="670" y="220" as="targetPoint" />
            <Array as="points">
              <mxPoint x="670" y="286" />
            </Array>
          </mxGeometry>
        </mxCell>
        <mxCell id="REkyW3odpnvt683TC7qx-41" value="" style="endArrow=classic;html=1;rounded=0;entryX=0;entryY=0.5;entryDx=0;entryDy=0;" parent="1" target="REkyW3odpnvt683TC7qx-34" edge="1">
          <mxGeometry width="50" height="50" relative="1" as="geometry">
            <mxPoint x="670" y="334" as="sourcePoint" />
            <mxPoint x="960" y="320" as="targetPoint" />
          </mxGeometry>
        </mxCell>
        <mxCell id="REkyW3odpnvt683TC7qx-42" value="" style="endArrow=classic;html=1;rounded=0;entryX=0;entryY=0.5;entryDx=0;entryDy=0;" parent="1" target="REkyW3odpnvt683TC7qx-36" edge="1">
          <mxGeometry width="50" height="50" relative="1" as="geometry">
            <mxPoint x="670" y="385" as="sourcePoint" />
            <mxPoint x="640" y="510" as="targetPoint" />
            <Array as="points">
              <mxPoint x="670" y="434" />
            </Array>
          </mxGeometry>
        </mxCell>
        <mxCell id="REkyW3odpnvt683TC7qx-43" value="" style="endArrow=classic;html=1;rounded=0;entryX=0;entryY=0.5;entryDx=0;entryDy=0;" parent="1" target="REkyW3odpnvt683TC7qx-37" edge="1">
          <mxGeometry width="50" height="50" relative="1" as="geometry">
            <mxPoint x="670" y="430" as="sourcePoint" />
            <mxPoint x="610" y="550" as="targetPoint" />
            <Array as="points">
              <mxPoint x="670" y="484" />
            </Array>
          </mxGeometry>
        </mxCell>
        <mxCell id="REkyW3odpnvt683TC7qx-44" value="&lt;font style=&quot;&quot;&gt;&lt;b style=&quot;&quot;&gt;&lt;span style=&quot;font-size: 18px;&quot;&gt;P&lt;/span&gt;&lt;sub style=&quot;&quot;&gt;&lt;font style=&quot;font-size: 12.5px;&quot;&gt;1&lt;/font&gt;&lt;/sub&gt;&lt;span style=&quot;font-size: 18px;&quot;&gt;A&lt;/span&gt;&lt;sub style=&quot;&quot;&gt;&lt;font style=&quot;font-size: 12.5px;&quot;&gt;1&lt;/font&gt;&lt;/sub&gt;&lt;/b&gt;&lt;/font&gt;" style="whiteSpace=wrap;html=1;aspect=fixed;fillColor=#b1ddf0;strokeColor=#10739e;" parent="1" vertex="1">
          <mxGeometry x="790" y="260.78" width="50" height="50" as="geometry" />
        </mxCell>
        <mxCell id="REkyW3odpnvt683TC7qx-45" value="&lt;b style=&quot;border-color: var(--border-color);&quot;&gt;&lt;span style=&quot;font-size: 18px;&quot;&gt;P&lt;/span&gt;&lt;sub style=&quot;&quot;&gt;&lt;font style=&quot;font-size: 12.5px;&quot;&gt;1&lt;/font&gt;&lt;/sub&gt;&lt;span style=&quot;font-size: 18px;&quot;&gt;A&lt;/span&gt;&lt;/b&gt;&lt;b style=&quot;border-color: var(--border-color); font-size: 15px;&quot;&gt;&lt;sub&gt;2&lt;/sub&gt;&lt;/b&gt;" style="whiteSpace=wrap;html=1;aspect=fixed;fillColor=#eeeeee;strokeColor=#36393d;" parent="1" vertex="1">
          <mxGeometry x="840" y="260.78" width="50" height="50" as="geometry" />
        </mxCell>
        <mxCell id="REkyW3odpnvt683TC7qx-46" value="&lt;b style=&quot;border-color: var(--border-color);&quot;&gt;&lt;span style=&quot;font-size: 18px;&quot;&gt;P&lt;/span&gt;&lt;sub style=&quot;&quot;&gt;&lt;font style=&quot;font-size: 12.5px;&quot;&gt;1&lt;/font&gt;&lt;/sub&gt;&lt;span style=&quot;font-size: 18px;&quot;&gt;A&lt;/span&gt;&lt;/b&gt;&lt;b style=&quot;border-color: var(--border-color); font-size: 15px;&quot;&gt;&lt;sub&gt;3&lt;/sub&gt;&lt;/b&gt;" style="whiteSpace=wrap;html=1;aspect=fixed;fillColor=#eeeeee;strokeColor=#36393d;" parent="1" vertex="1">
          <mxGeometry x="890" y="260.78" width="50" height="50" as="geometry" />
        </mxCell>
        <mxCell id="REkyW3odpnvt683TC7qx-47" value="&lt;font style=&quot;font-size: 18px;&quot;&gt;&lt;b&gt;...&lt;/b&gt;&lt;/font&gt;" style="whiteSpace=wrap;html=1;aspect=fixed;fillColor=#eeeeee;strokeColor=#36393d;" parent="1" vertex="1">
          <mxGeometry x="940" y="260.78" width="50" height="50" as="geometry" />
        </mxCell>
        <mxCell id="REkyW3odpnvt683TC7qx-48" value="&lt;b style=&quot;border-color: var(--border-color);&quot;&gt;&lt;span style=&quot;font-size: 18px;&quot;&gt;P&lt;/span&gt;&lt;sub style=&quot;&quot;&gt;&lt;font style=&quot;font-size: 12.5px;&quot;&gt;1&lt;/font&gt;&lt;/sub&gt;&lt;span style=&quot;font-size: 18px;&quot;&gt;A&lt;/span&gt;&lt;/b&gt;&lt;b style=&quot;border-color: var(--border-color); font-size: 15px;&quot;&gt;&lt;sub&gt;N&lt;/sub&gt;&lt;/b&gt;" style="whiteSpace=wrap;html=1;aspect=fixed;fillColor=#eeeeee;strokeColor=#36393d;" parent="1" vertex="1">
          <mxGeometry x="990" y="260.78" width="50" height="50" as="geometry" />
        </mxCell>
        <mxCell id="REkyW3odpnvt683TC7qx-69" value="&lt;font style=&quot;&quot;&gt;&lt;b style=&quot;&quot;&gt;&lt;span style=&quot;font-size: 18px;&quot;&gt;P&lt;/span&gt;&lt;sub style=&quot;&quot;&gt;&lt;font style=&quot;font-size: 12.5px;&quot;&gt;2&lt;/font&gt;&lt;/sub&gt;&lt;span style=&quot;font-size: 18px;&quot;&gt;A&lt;/span&gt;&lt;sub style=&quot;&quot;&gt;&lt;font style=&quot;font-size: 12.5px;&quot;&gt;1&lt;/font&gt;&lt;/sub&gt;&lt;/b&gt;&lt;/font&gt;" style="whiteSpace=wrap;html=1;aspect=fixed;fillColor=#eeeeee;strokeColor=#36393d;" parent="1" vertex="1">
          <mxGeometry x="790" y="309.23" width="50" height="50" as="geometry" />
        </mxCell>
        <mxCell id="REkyW3odpnvt683TC7qx-70" value="&lt;b style=&quot;border-color: var(--border-color);&quot;&gt;&lt;span style=&quot;font-size: 18px;&quot;&gt;P&lt;/span&gt;&lt;sub style=&quot;&quot;&gt;&lt;font style=&quot;font-size: 12.5px;&quot;&gt;2&lt;/font&gt;&lt;/sub&gt;&lt;span style=&quot;font-size: 18px;&quot;&gt;A&lt;/span&gt;&lt;/b&gt;&lt;b style=&quot;border-color: var(--border-color); font-size: 15px;&quot;&gt;&lt;sub&gt;2&lt;/sub&gt;&lt;/b&gt;" style="whiteSpace=wrap;html=1;aspect=fixed;fillColor=#b1ddf0;strokeColor=#10739e;" parent="1" vertex="1">
          <mxGeometry x="840" y="309.23" width="50" height="50" as="geometry" />
        </mxCell>
        <mxCell id="REkyW3odpnvt683TC7qx-71" value="&lt;b style=&quot;border-color: var(--border-color);&quot;&gt;&lt;span style=&quot;font-size: 18px;&quot;&gt;P&lt;/span&gt;&lt;sub style=&quot;&quot;&gt;&lt;font style=&quot;font-size: 12.5px;&quot;&gt;2&lt;/font&gt;&lt;/sub&gt;&lt;span style=&quot;font-size: 18px;&quot;&gt;A&lt;/span&gt;&lt;/b&gt;&lt;b style=&quot;border-color: var(--border-color); font-size: 15px;&quot;&gt;&lt;sub&gt;3&lt;/sub&gt;&lt;/b&gt;" style="whiteSpace=wrap;html=1;aspect=fixed;fillColor=#eeeeee;strokeColor=#36393d;" parent="1" vertex="1">
          <mxGeometry x="890" y="309.23" width="50" height="50" as="geometry" />
        </mxCell>
        <mxCell id="REkyW3odpnvt683TC7qx-72" value="&lt;font style=&quot;font-size: 18px;&quot;&gt;&lt;b&gt;...&lt;/b&gt;&lt;/font&gt;" style="whiteSpace=wrap;html=1;aspect=fixed;fillColor=#eeeeee;strokeColor=#36393d;" parent="1" vertex="1">
          <mxGeometry x="940" y="309.23" width="50" height="50" as="geometry" />
        </mxCell>
        <mxCell id="REkyW3odpnvt683TC7qx-73" value="&lt;b style=&quot;border-color: var(--border-color);&quot;&gt;&lt;span style=&quot;font-size: 18px;&quot;&gt;P&lt;/span&gt;&lt;sub style=&quot;&quot;&gt;&lt;font style=&quot;font-size: 12.5px;&quot;&gt;2&lt;/font&gt;&lt;/sub&gt;&lt;span style=&quot;font-size: 18px;&quot;&gt;A&lt;/span&gt;&lt;/b&gt;&lt;b style=&quot;border-color: var(--border-color); font-size: 15px;&quot;&gt;&lt;sub&gt;N&lt;/sub&gt;&lt;/b&gt;" style="whiteSpace=wrap;html=1;aspect=fixed;fillColor=#eeeeee;strokeColor=#36393d;" parent="1" vertex="1">
          <mxGeometry x="990" y="309.23" width="50" height="50" as="geometry" />
        </mxCell>
        <mxCell id="REkyW3odpnvt683TC7qx-74" value="&lt;font style=&quot;&quot;&gt;&lt;b style=&quot;&quot;&gt;&lt;span style=&quot;font-size: 18px;&quot;&gt;P&lt;/span&gt;&lt;sub style=&quot;&quot;&gt;&lt;font style=&quot;font-size: 12.5px;&quot;&gt;3&lt;/font&gt;&lt;/sub&gt;&lt;span style=&quot;font-size: 18px;&quot;&gt;A&lt;/span&gt;&lt;sub style=&quot;&quot;&gt;&lt;font style=&quot;font-size: 12.5px;&quot;&gt;1&lt;/font&gt;&lt;/sub&gt;&lt;/b&gt;&lt;/font&gt;" style="whiteSpace=wrap;html=1;aspect=fixed;fillColor=#eeeeee;strokeColor=#36393d;" parent="1" vertex="1">
          <mxGeometry x="790" y="358.45" width="50" height="50" as="geometry" />
        </mxCell>
        <mxCell id="REkyW3odpnvt683TC7qx-75" value="&lt;b style=&quot;border-color: var(--border-color);&quot;&gt;&lt;span style=&quot;font-size: 18px;&quot;&gt;P&lt;/span&gt;&lt;sub style=&quot;&quot;&gt;&lt;font style=&quot;font-size: 12.5px;&quot;&gt;3&lt;/font&gt;&lt;/sub&gt;&lt;span style=&quot;font-size: 18px;&quot;&gt;A&lt;/span&gt;&lt;/b&gt;&lt;b style=&quot;border-color: var(--border-color); font-size: 15px;&quot;&gt;&lt;sub&gt;2&lt;/sub&gt;&lt;/b&gt;" style="whiteSpace=wrap;html=1;aspect=fixed;fillColor=#eeeeee;strokeColor=#36393d;" parent="1" vertex="1">
          <mxGeometry x="840" y="358.45" width="50" height="50" as="geometry" />
        </mxCell>
        <mxCell id="REkyW3odpnvt683TC7qx-76" value="&lt;b style=&quot;border-color: var(--border-color);&quot;&gt;&lt;span style=&quot;font-size: 18px;&quot;&gt;P&lt;/span&gt;&lt;sub style=&quot;&quot;&gt;&lt;font style=&quot;font-size: 12.5px;&quot;&gt;3&lt;/font&gt;&lt;/sub&gt;&lt;span style=&quot;font-size: 18px;&quot;&gt;A&lt;/span&gt;&lt;/b&gt;&lt;b style=&quot;border-color: var(--border-color); font-size: 15px;&quot;&gt;&lt;sub&gt;3&lt;/sub&gt;&lt;/b&gt;" style="whiteSpace=wrap;html=1;aspect=fixed;fillColor=#b1ddf0;strokeColor=#10739e;" parent="1" vertex="1">
          <mxGeometry x="890" y="358.45" width="50" height="50" as="geometry" />
        </mxCell>
        <mxCell id="REkyW3odpnvt683TC7qx-77" value="&lt;font style=&quot;font-size: 18px;&quot;&gt;&lt;b&gt;...&lt;/b&gt;&lt;/font&gt;" style="whiteSpace=wrap;html=1;aspect=fixed;fillColor=#eeeeee;strokeColor=#36393d;" parent="1" vertex="1">
          <mxGeometry x="940" y="358.45" width="50" height="50" as="geometry" />
        </mxCell>
        <mxCell id="REkyW3odpnvt683TC7qx-78" value="&lt;b style=&quot;border-color: var(--border-color);&quot;&gt;&lt;span style=&quot;font-size: 18px;&quot;&gt;P&lt;/span&gt;&lt;sub style=&quot;&quot;&gt;&lt;font style=&quot;font-size: 12.5px;&quot;&gt;3&lt;/font&gt;&lt;/sub&gt;&lt;span style=&quot;font-size: 18px;&quot;&gt;A&lt;/span&gt;&lt;/b&gt;&lt;b style=&quot;border-color: var(--border-color); font-size: 15px;&quot;&gt;&lt;sub&gt;N&lt;/sub&gt;&lt;/b&gt;" style="whiteSpace=wrap;html=1;aspect=fixed;fillColor=#eeeeee;strokeColor=#36393d;" parent="1" vertex="1">
          <mxGeometry x="990" y="358.45" width="50" height="50" as="geometry" />
        </mxCell>
        <mxCell id="REkyW3odpnvt683TC7qx-79" value="&lt;span style=&quot;font-size: 18px;&quot;&gt;&lt;b&gt;...&lt;/b&gt;&lt;/span&gt;" style="whiteSpace=wrap;html=1;aspect=fixed;fillColor=#eeeeee;strokeColor=#36393d;" parent="1" vertex="1">
          <mxGeometry x="790" y="409.22999999999996" width="50" height="50" as="geometry" />
        </mxCell>
        <mxCell id="REkyW3odpnvt683TC7qx-80" value="&lt;span style=&quot;font-size: 18px;&quot;&gt;&lt;b&gt;...&lt;/b&gt;&lt;/span&gt;" style="whiteSpace=wrap;html=1;aspect=fixed;fillColor=#eeeeee;strokeColor=#36393d;" parent="1" vertex="1">
          <mxGeometry x="840" y="409.22999999999996" width="50" height="50" as="geometry" />
        </mxCell>
        <mxCell id="REkyW3odpnvt683TC7qx-81" value="&lt;span style=&quot;font-size: 18px;&quot;&gt;&lt;b&gt;...&lt;/b&gt;&lt;/span&gt;" style="whiteSpace=wrap;html=1;aspect=fixed;fillColor=#eeeeee;strokeColor=#36393d;" parent="1" vertex="1">
          <mxGeometry x="890" y="409.22999999999996" width="50" height="50" as="geometry" />
        </mxCell>
        <mxCell id="REkyW3odpnvt683TC7qx-82" value="&lt;font style=&quot;font-size: 18px;&quot;&gt;&lt;b&gt;...&lt;/b&gt;&lt;/font&gt;" style="whiteSpace=wrap;html=1;aspect=fixed;fillColor=#b1ddf0;strokeColor=#10739e;" parent="1" vertex="1">
          <mxGeometry x="940" y="409.22999999999996" width="50" height="50" as="geometry" />
        </mxCell>
        <mxCell id="REkyW3odpnvt683TC7qx-83" value="&lt;span style=&quot;font-size: 18px;&quot;&gt;&lt;b&gt;...&lt;/b&gt;&lt;/span&gt;" style="whiteSpace=wrap;html=1;aspect=fixed;fillColor=#eeeeee;strokeColor=#36393d;" parent="1" vertex="1">
          <mxGeometry x="990" y="409.22999999999996" width="50" height="50" as="geometry" />
        </mxCell>
        <mxCell id="REkyW3odpnvt683TC7qx-84" value="&lt;font style=&quot;&quot;&gt;&lt;b style=&quot;&quot;&gt;&lt;span style=&quot;font-size: 18px;&quot;&gt;P&lt;/span&gt;&lt;sub style=&quot;&quot;&gt;&lt;font style=&quot;font-size: 12.5px;&quot;&gt;N&lt;/font&gt;&lt;/sub&gt;&lt;span style=&quot;font-size: 18px;&quot;&gt;A&lt;/span&gt;&lt;sub style=&quot;&quot;&gt;&lt;font style=&quot;font-size: 12.5px;&quot;&gt;1&lt;/font&gt;&lt;/sub&gt;&lt;/b&gt;&lt;/font&gt;" style="whiteSpace=wrap;html=1;aspect=fixed;fillColor=#eeeeee;strokeColor=#36393d;" parent="1" vertex="1">
          <mxGeometry x="790" y="459.22999999999996" width="50" height="50" as="geometry" />
        </mxCell>
        <mxCell id="REkyW3odpnvt683TC7qx-85" value="&lt;b style=&quot;border-color: var(--border-color);&quot;&gt;&lt;span style=&quot;font-size: 18px;&quot;&gt;P&lt;/span&gt;&lt;sub style=&quot;&quot;&gt;&lt;font style=&quot;font-size: 12.5px;&quot;&gt;N&lt;/font&gt;&lt;/sub&gt;&lt;span style=&quot;font-size: 18px;&quot;&gt;A&lt;/span&gt;&lt;/b&gt;&lt;b style=&quot;border-color: var(--border-color); font-size: 15px;&quot;&gt;&lt;sub&gt;2&lt;/sub&gt;&lt;/b&gt;" style="whiteSpace=wrap;html=1;aspect=fixed;fillColor=#eeeeee;strokeColor=#36393d;" parent="1" vertex="1">
          <mxGeometry x="840" y="459.22999999999996" width="50" height="50" as="geometry" />
        </mxCell>
        <mxCell id="REkyW3odpnvt683TC7qx-86" value="&lt;b style=&quot;border-color: var(--border-color);&quot;&gt;&lt;span style=&quot;font-size: 18px;&quot;&gt;P&lt;/span&gt;&lt;sub style=&quot;&quot;&gt;&lt;font style=&quot;font-size: 12.5px;&quot;&gt;N&lt;/font&gt;&lt;/sub&gt;&lt;span style=&quot;font-size: 18px;&quot;&gt;A&lt;/span&gt;&lt;/b&gt;&lt;b style=&quot;border-color: var(--border-color); font-size: 15px;&quot;&gt;&lt;sub&gt;3&lt;/sub&gt;&lt;/b&gt;" style="whiteSpace=wrap;html=1;aspect=fixed;fillColor=#eeeeee;strokeColor=#36393d;" parent="1" vertex="1">
          <mxGeometry x="890" y="459.22999999999996" width="50" height="50" as="geometry" />
        </mxCell>
        <mxCell id="REkyW3odpnvt683TC7qx-87" value="&lt;font style=&quot;font-size: 18px;&quot;&gt;&lt;b&gt;...&lt;/b&gt;&lt;/font&gt;" style="whiteSpace=wrap;html=1;aspect=fixed;fillColor=#eeeeee;strokeColor=#36393d;" parent="1" vertex="1">
          <mxGeometry x="940" y="459.22999999999996" width="50" height="50" as="geometry" />
        </mxCell>
        <mxCell id="REkyW3odpnvt683TC7qx-88" value="&lt;b style=&quot;border-color: var(--border-color);&quot;&gt;&lt;span style=&quot;font-size: 18px;&quot;&gt;P&lt;/span&gt;&lt;sub style=&quot;&quot;&gt;&lt;font style=&quot;font-size: 12.5px;&quot;&gt;N&lt;/font&gt;&lt;/sub&gt;&lt;span style=&quot;font-size: 18px;&quot;&gt;A&lt;/span&gt;&lt;/b&gt;&lt;b style=&quot;border-color: var(--border-color); font-size: 15px;&quot;&gt;&lt;sub&gt;N&lt;/sub&gt;&lt;/b&gt;" style="whiteSpace=wrap;html=1;aspect=fixed;fillColor=#b1ddf0;strokeColor=#10739e;" parent="1" vertex="1">
          <mxGeometry x="990" y="459.22999999999996" width="50" height="50" as="geometry" />
        </mxCell>
        <mxCell id="REkyW3odpnvt683TC7qx-89" value="&lt;font style=&quot;font-size: 18px;&quot;&gt;Contrastive Metrix&amp;nbsp;&lt;/font&gt;" style="text;html=1;strokeColor=none;fillColor=none;align=center;verticalAlign=middle;whiteSpace=wrap;rounded=0;" parent="1" vertex="1">
          <mxGeometry x="830" y="520" width="170" height="20" as="geometry" />
        </mxCell>
        <mxCell id="REkyW3odpnvt683TC7qx-90" value="&lt;font style=&quot;font-size: 18px;&quot;&gt;&lt;b&gt;Contrastive Alignment&amp;nbsp;&lt;/b&gt;&lt;/font&gt;" style="text;html=1;strokeColor=none;fillColor=none;align=center;verticalAlign=middle;whiteSpace=wrap;rounded=0;rotation=270;" parent="1" vertex="1">
          <mxGeometry x="970" y="374.23" width="200" height="20" as="geometry" />
        </mxCell>
        <mxCell id="REkyW3odpnvt683TC7qx-91" value="&lt;font style=&quot;font-size: 18px;&quot;&gt;&lt;b&gt;Mask&amp;nbsp;&lt;/b&gt;&lt;/font&gt;" style="rounded=0;whiteSpace=wrap;html=1;fillColor=#f8cecc;strokeColor=#b85450;" parent="1" vertex="1">
          <mxGeometry x="105" y="310.78" width="120" height="30" as="geometry" />
        </mxCell>
        <mxCell id="REkyW3odpnvt683TC7qx-92" value="" style="endArrow=classic;html=1;rounded=0;entryX=0.5;entryY=0;entryDx=0;entryDy=0;" parent="1" target="REkyW3odpnvt683TC7qx-91" edge="1">
          <mxGeometry width="50" height="50" relative="1" as="geometry">
            <mxPoint x="165" y="280" as="sourcePoint" />
            <mxPoint x="10" y="230" as="targetPoint" />
          </mxGeometry>
        </mxCell>
        <mxCell id="REkyW3odpnvt683TC7qx-97" value="" style="edgeStyle=orthogonalEdgeStyle;rounded=0;orthogonalLoop=1;jettySize=auto;html=1;" parent="1" source="REkyW3odpnvt683TC7qx-94" target="REkyW3odpnvt683TC7qx-96" edge="1">
          <mxGeometry relative="1" as="geometry" />
        </mxCell>
        <mxCell id="REkyW3odpnvt683TC7qx-94" value="&lt;font style=&quot;font-size: 18px;&quot;&gt;&lt;b&gt;MLP&lt;/b&gt;&lt;/font&gt;" style="rounded=0;whiteSpace=wrap;html=1;fillColor=#f8cecc;strokeColor=#b85450;" parent="1" vertex="1">
          <mxGeometry x="480" y="540" width="100" height="35" as="geometry" />
        </mxCell>
        <mxCell id="REkyW3odpnvt683TC7qx-96" value="&lt;font style=&quot;font-size: 18px;&quot;&gt;Seq loss&lt;/font&gt;" style="text;html=1;strokeColor=none;fillColor=none;align=center;verticalAlign=middle;whiteSpace=wrap;rounded=0;" parent="1" vertex="1">
          <mxGeometry x="330" y="545" width="90" height="25" as="geometry" />
        </mxCell>
        <mxCell id="REkyW3odpnvt683TC7qx-98" value="" style="endArrow=classic;html=1;rounded=0;exitX=0;exitY=0.25;exitDx=0;exitDy=0;entryX=0;entryY=0.5;entryDx=0;entryDy=0;" parent="1" source="REkyW3odpnvt683TC7qx-3" target="REkyW3odpnvt683TC7qx-96" edge="1">
          <mxGeometry width="50" height="50" relative="1" as="geometry">
            <mxPoint x="-40" y="460" as="sourcePoint" />
            <mxPoint x="50" y="670" as="targetPoint" />
            <Array as="points">
              <mxPoint x="50" y="207" />
              <mxPoint x="50" y="558" />
            </Array>
          </mxGeometry>
        </mxCell>
      </root>
    </mxGraphModel>
  </diagram>
</mxfile>
